<svg width="277" height="76" viewBox="0 0 277 76" fill="none" xmlns="http://www.w3.org/2000/svg">
<g filter="url(#filter0_d)">
<rect x="11" y="11" width="255" height="54" rx="27" fill="white"/>
</g>
<path d="M107.491 30.8715H105.973V34.1443H103.783V35.3722H105.973V39.9019H107.491V30.8715ZM97.1114 37.2238L97.8945 38.4565C99.3593 37.9537 100.384 36.9095 100.93 35.614C101.467 36.779 102.444 37.7265 103.826 38.1906L104.585 36.9869C102.676 36.3536 101.68 34.8163 101.68 33.3322V32.989H104.237V31.761H97.5561V32.989H100.133V33.3225C100.133 34.9662 99.0789 36.5808 97.1114 37.2238ZM99.3835 42.9765H107.8V41.7438H100.901V39.1043H99.3835V42.9765ZM119.015 30.8619H117.487V43.2086H119.015V37.2238H120.746V35.962H119.015V30.8619ZM109.09 39.7907L109.308 41.0428C111.411 41.0428 114.272 41.0186 116.926 40.5401L116.825 39.4233C115.853 39.5587 114.814 39.6457 113.779 39.6989V38.6015C115.123 38.3743 116.022 37.5283 116.032 36.3633C116.022 34.9758 114.78 34.0477 113.025 34.0477C111.246 34.0477 110.023 34.9758 110.028 36.3633C110.023 37.5283 110.903 38.3695 112.252 38.5967V39.7569C111.116 39.7859 110.028 39.7907 109.09 39.7907ZM109.322 33.4869H116.69V32.2831H113.779V30.9102H112.252V32.2831H109.322V33.4869ZM111.469 36.3633C111.464 35.6478 112.087 35.2127 113.025 35.2127C113.949 35.2127 114.572 35.6478 114.572 36.3633C114.572 37.0787 113.949 37.4993 113.025 37.4945C112.087 37.4993 111.464 37.0787 111.469 36.3633ZM132.637 40.5256H127.716V38.5097H131.583V37.2673H124.197V35.672H131.298V31.703H122.659V32.9309H129.795V34.4682H122.679V38.5097H126.208V40.5256H121.34V41.7825H132.637V40.5256ZM146.793 36.4744H139.652V32.9938H146.696V31.7756H138.13V37.683H141.63V40.5062H136.761V41.7535H148.059V40.5062H143.138V37.683H146.793V36.4744ZM154.483 31.0504C151.771 31.0552 150.026 31.9351 150.031 33.4289C150.026 34.8888 151.771 35.7638 154.483 35.759C157.215 35.7638 158.931 34.8888 158.931 33.4289C158.931 31.9351 157.215 31.0552 154.483 31.0504ZM148.861 37.7265H153.724V38.9012H150.191V43.0635H158.757V38.9012H155.237V37.7265H160.12V36.4986H148.861V37.7265ZM151.607 33.4289C151.597 32.6457 152.67 32.2203 154.483 32.2203C156.282 32.2203 157.369 32.6457 157.369 33.4289C157.369 34.183 156.282 34.5939 154.483 34.5891C152.67 34.5939 151.597 34.183 151.607 33.4289ZM151.689 41.8356V40.1098H157.278V41.8356H151.689ZM175.581 40.4675H172.975V37.3108C173.932 36.7403 174.512 35.8702 174.512 34.7921C174.512 32.8246 172.569 31.5242 169.905 31.5193C167.242 31.5242 165.313 32.8246 165.318 34.7921C165.313 35.8895 165.907 36.7742 166.893 37.3398V40.4675H164.283V41.7148H175.581V40.4675ZM166.806 34.7921C166.806 33.5062 168.054 32.7279 169.905 32.7327C171.742 32.7279 173.018 33.5062 173.018 34.7921C173.018 36.0587 171.742 36.866 169.905 36.866C168.054 36.866 166.806 36.0587 166.806 34.7921ZM168.397 40.4675V37.8957C168.866 37.9972 169.369 38.0504 169.905 38.0504C170.451 38.0504 170.964 37.9972 171.438 37.8957V40.4675H168.397ZM180.82 33.4917V33.4289H183.402V32.2203H180.84V30.8087H179.307V32.2203H176.721V33.4289H179.307V33.4917C179.307 34.9855 178.273 36.4358 176.339 37.0159L177.059 38.2051C178.529 37.7652 179.554 36.808 180.09 35.5994C180.661 36.6678 181.686 37.4993 183.107 37.8812L183.827 36.7017C181.879 36.1844 180.82 34.8501 180.82 33.4917ZM178.345 40.8736C178.34 42.3481 179.945 43.2037 182.551 43.1989C185.162 43.2037 186.767 42.3481 186.767 40.8736C186.767 39.4088 185.162 38.5822 182.551 38.5773C179.945 38.5822 178.34 39.4088 178.345 40.8736ZM179.858 40.8736C179.849 40.1436 180.83 39.7521 182.551 39.7472C184.296 39.7521 185.253 40.1436 185.258 40.8736C185.253 41.6133 184.296 42.029 182.551 42.029C180.83 42.029 179.849 41.6133 179.858 40.8736ZM183.035 35.4786H185.215V38.3356H186.733V30.8619H185.215V34.2507H183.035V35.4786ZM198.16 30.8619H196.657V43.2086H198.16V37.0352H200.065V35.7831H198.16V30.8619ZM188.415 33.98H195.705V32.7521H192.852V31.0359H191.334V32.7521H188.415V33.98ZM188.985 37.6878C188.975 39.3943 190.3 40.5932 192.103 40.5932C193.882 40.5932 195.202 39.3943 195.211 37.6878C195.202 35.9814 193.882 34.7776 192.103 34.7776C190.3 34.7776 188.975 35.9814 188.985 37.6878ZM190.44 37.6878C190.43 36.6872 191.136 36.0249 192.103 36.0249C193.055 36.0249 193.747 36.6872 193.756 37.6878C193.747 38.703 193.055 39.346 192.103 39.3363C191.136 39.346 190.43 38.703 190.44 37.6878ZM210.898 30.8619H209.366V43.2086H210.898V30.8619ZM200.664 39.8101L201.462 41.0283C205.783 38.9738 207.21 35.8508 207.214 32.172H201.292V33.3757H205.667C205.397 36.1892 203.898 38.2728 200.664 39.8101Z" fill="#313131"/>
<path fill-rule="evenodd" clip-rule="evenodd" d="M62.3488 24.9298C62.4138 24.3564 62.9265 23.9346 63.4946 24.0084C69.131 24.6375 73.5096 29.0416 74.1412 34.7164C74.2062 35.2899 73.7957 35.8077 73.2276 35.8703C73.1876 35.8745 73.1489 35.8773 73.1102 35.8773C72.5905 35.8773 72.1413 35.4834 72.0818 34.9503C71.5566 30.2512 67.9327 26.6043 63.2652 26.0823C62.6957 26.0183 62.2866 25.5033 62.3488 24.9298ZM48.5845 29.0979C47.8727 30.0834 47.9225 31.3473 48.6868 33.0385C48.9232 33.5632 48.6937 34.1812 48.1727 34.4207C47.653 34.6601 47.0365 34.4276 46.8002 33.9029C45.7138 31.499 45.7332 29.4919 46.861 27.9413C47.0987 27.5376 49.7289 24.1385 52.1905 24.3014C52.9023 24.3598 53.5547 24.6953 54.1684 25.298C54.8194 25.9369 57.5601 29.2928 57.7799 30.359C58.016 31.5008 57.5071 32.3925 57.1354 33.0437L57.1344 33.0454C56.7682 33.6871 56.641 33.9613 56.7668 34.3079C57.6928 36.5879 59.122 38.4489 61.0003 39.8004C61.4661 40.1373 61.5739 40.7873 61.2408 41.2578C61.039 41.5417 60.7211 41.6948 60.3977 41.6948C60.189 41.6948 59.9775 41.6322 59.7951 41.5C57.5933 39.9146 55.9237 37.7487 54.8318 35.0582C54.3522 33.7289 54.9216 32.7323 55.3377 32.0043C55.65 31.4586 55.8228 31.1329 55.7495 30.785C55.556 30.2825 53.534 27.5919 52.7199 26.7929C52.4683 26.5438 52.232 26.3976 52.0565 26.3837C51.1249 26.3406 49.0434 28.3324 48.5845 29.0979ZM64.445 41.1518C65.219 40.6619 66.2805 39.9951 67.628 40.2749C68.6854 40.4948 72.0163 43.255 72.6521 43.912C73.2506 44.5272 73.5837 45.1842 73.6404 45.8663C73.7302 48.4288 70.3191 51.1096 69.9293 51.3351C69.1843 51.8752 68.3122 52.148 67.3323 52.148C66.3565 52.148 65.2729 51.878 64.0994 51.3296C59.5854 49.4393 52.759 43.319 48.9222 37.7026C48.5974 37.2294 48.7162 36.5794 49.1875 36.2509C49.6588 35.9279 50.3057 36.0435 50.6291 36.5209C54.213 41.7643 60.7643 47.6716 64.9343 49.4184C66.6219 50.2063 67.8782 50.255 68.8112 49.5813C69.5382 49.1359 71.6086 47.0661 71.5713 45.9887C71.5589 45.8621 71.4151 45.6241 71.1705 45.3707C70.3744 44.5495 67.7041 42.5145 67.1457 42.3029C66.7006 42.2125 66.2473 42.4769 65.5493 42.9182L65.19 43.1437C64.6993 43.4401 64.0607 43.2787 63.7677 42.7873C63.472 42.2918 63.6309 41.6501 64.1216 41.3536L64.445 41.1518ZM67.1976 35.0456C67.2944 35.5439 67.7284 35.8891 68.2135 35.8891C68.2799 35.8891 68.3476 35.8835 68.4139 35.871C68.9765 35.761 69.3427 35.2112 69.2335 34.6461C68.6724 31.7509 66.4527 29.5155 63.5778 28.9517C63.0236 28.8557 62.4721 29.212 62.3615 29.7771C62.2523 30.3423 62.62 30.8921 63.1811 31.002C65.2226 31.4015 66.7996 32.9883 67.1976 35.0456Z" fill="#4378FF"/>
<defs>
<filter id="filter0_d" x="0" y="0" width="277" height="76" filterUnits="userSpaceOnUse" color-interpolation-filters="sRGB">
<feFlood flood-opacity="0" result="BackgroundImageFix"/>
<feColorMatrix in="SourceAlpha" type="matrix" values="0 0 0 0 0 0 0 0 0 0 0 0 0 0 0 0 0 0 127 0" result="hardAlpha"/>
<feOffset/>
<feGaussianBlur stdDeviation="5.5"/>
<feComposite in2="hardAlpha" operator="out"/>
<feColorMatrix type="matrix" values="0 0 0 0 0.6875 0 0 0 0 0.6875 0 0 0 0 0.6875 0 0 0 0.25 0"/>
<feBlend mode="normal" in2="BackgroundImageFix" result="effect1_dropShadow"/>
<feBlend mode="normal" in="SourceGraphic" in2="effect1_dropShadow" result="shape"/>
</filter>
</defs>
</svg>
