<svg width="55" height="55" viewBox="0 0 55 55" fill="none" xmlns="http://www.w3.org/2000/svg">
<circle cx="27.5" cy="27.5" r="27.5" fill="#FFCE52"/>
<path fill-rule="evenodd" clip-rule="evenodd" d="M42.6399 32.8955C42.6662 32.9404 42.6879 32.9885 42.7081 33.0365C42.8925 33.4905 42.9978 33.9693 43.0242 34.459C43.0846 35.6289 42.6864 36.7507 41.9008 37.6216C41.1167 38.4924 40.0398 39.0053 38.8699 39.0642L22.2016 39.0657C21.5601 39.0657 21.0394 38.5451 21.0394 37.9036C21.0394 37.2621 21.5601 36.7414 22.2016 36.7414H38.811C39.3007 36.7135 39.8058 36.4749 40.1761 36.0643C40.5449 35.6552 40.7309 35.1299 40.703 34.5798C40.6921 34.3722 40.6503 34.1677 40.5775 33.9724L29.3449 14.315C28.7886 13.3094 27.532 12.9468 26.5372 13.4969C26.1978 13.6844 25.9204 13.9618 25.733 14.3011L14.4911 33.974C14.3098 34.4667 14.3222 35.0013 14.5267 35.4863C14.7406 35.993 15.1388 36.3866 15.6486 36.5927C15.864 36.681 16.0871 36.7306 16.318 36.743C16.958 36.774 17.4523 37.321 17.4197 37.9625C17.3887 38.5823 16.8743 39.0657 16.2591 39.0657C16.239 39.0657 16.2204 39.0657 16.2002 39.0642C15.7075 39.0394 15.2271 38.9325 14.7716 38.7465C13.69 38.3065 12.8424 37.4697 12.3868 36.3912C11.9297 35.3128 11.922 34.1196 12.3636 33.0349C12.3822 32.9869 12.4039 32.9404 12.4302 32.8955L23.7062 13.1622C24.0966 12.4556 24.6901 11.8637 25.4107 11.4624C27.5289 10.2909 30.2018 11.0595 31.3717 13.1761L42.6399 32.8955ZM27.5351 27.3363C28.1766 27.3363 28.6972 26.8157 28.6972 26.1742V21.7936C28.6972 21.1521 28.1766 20.6315 27.5351 20.6315C26.8936 20.6315 26.3729 21.1521 26.3729 21.7936V26.1742C26.3729 26.8157 26.8936 27.3363 27.5351 27.3363ZM27.5351 32.6371C28.1766 32.6371 28.6972 32.1165 28.6972 31.475V31.4595C28.6972 30.818 28.1766 30.3051 27.5351 30.3051C26.8936 30.3051 26.3729 30.8335 26.3729 31.475C26.3729 32.1165 26.8936 32.6371 27.5351 32.6371Z" fill="white"/>
</svg>
