<svg width="55" height="55" viewBox="0 0 55 55" fill="none" xmlns="http://www.w3.org/2000/svg">
<circle cx="27.5" cy="27.5" r="27.5" fill="#3DB54A"/>
<path fill-rule="evenodd" clip-rule="evenodd" d="M42.8543 32.8955C42.8806 32.9404 42.9023 32.9885 42.9224 33.0365C43.1068 33.4905 43.2122 33.9693 43.2385 34.459C43.299 35.6289 42.9007 36.7507 42.1151 37.6216C41.3311 38.4924 40.2541 39.0053 39.0842 39.0642L22.4159 39.0657C21.7744 39.0657 21.2538 38.5451 21.2538 37.9036C21.2538 37.2621 21.7744 36.7414 22.4159 36.7414H39.0254C39.515 36.7135 40.0202 36.4749 40.3905 36.0643C40.7593 35.6552 40.9452 35.1299 40.9173 34.5798C40.9065 34.3722 40.8647 34.1677 40.7918 33.9724L29.5593 14.315C29.003 13.3094 27.7463 12.9468 26.7515 13.4969C26.4122 13.6844 26.1348 13.9618 25.9473 14.3011L14.7055 33.974C14.5242 34.4667 14.5366 35.0013 14.7411 35.4863C14.9549 35.993 15.3532 36.3866 15.863 36.5927C16.0783 36.681 16.3015 36.7306 16.5324 36.743C17.1723 36.774 17.6666 37.321 17.6341 37.9625C17.6031 38.5823 17.0886 39.0657 16.4735 39.0657C16.4533 39.0657 16.4347 39.0657 16.4146 39.0642C15.9218 39.0394 15.4415 38.9325 14.9859 38.7465C13.9043 38.3065 13.0567 37.4697 12.6012 36.3912C12.1441 35.3128 12.1363 34.1196 12.5779 33.0349C12.5965 32.9869 12.6182 32.9404 12.6446 32.8955L23.9205 13.1622C24.311 12.4556 24.9045 11.8637 25.625 11.4624C27.7432 10.2909 30.4162 11.0595 31.5861 13.1761L42.8543 32.8955ZM27.7494 27.3363C28.3909 27.3363 28.9116 26.8157 28.9116 26.1742V21.7936C28.9116 21.1521 28.3909 20.6315 27.7494 20.6315C27.1079 20.6315 26.5873 21.1521 26.5873 21.7936V26.1742C26.5873 26.8157 27.1079 27.3363 27.7494 27.3363ZM27.7494 32.6371C28.3909 32.6371 28.9116 32.1165 28.9116 31.475V31.4595C28.9116 30.818 28.3909 30.3051 27.7494 30.3051C27.1079 30.3051 26.5873 30.8335 26.5873 31.475C26.5873 32.1165 27.1079 32.6371 27.7494 32.6371Z" fill="white"/>
</svg>
