<svg width="277" height="76" viewBox="0 0 277 76" fill="none" xmlns="http://www.w3.org/2000/svg">
<g filter="url(#filter0_d)">
<rect x="11" y="11" width="255" height="54" rx="27" fill="white"/>
</g>
<path d="M109.424 38.0352H98.1259V39.2583H103.149V41.5159H104.652V39.2583H109.424V38.0352ZM99.494 43.9765H108.176V42.7438H101.012V40.3943H99.494V43.9765ZM99.5568 36.8943H107.968V32.4227H99.5568V36.8943ZM101.041 35.7003V33.6119H106.47V35.7003H101.041ZM114.673 35.3667V34.3273H117.255V33.0801H110.458V34.3273H113.15V35.3667C113.145 37.4261 111.947 39.7417 109.979 40.6699L110.873 41.8688C112.29 41.1823 113.368 39.732 113.929 38.0352C114.484 39.5822 115.514 40.9116 116.906 41.5594L117.757 40.3605C115.809 39.4517 114.663 37.2811 114.673 35.3667ZM118.395 44.2086H119.918V37.9434H121.823V36.6671H119.918V31.8619H118.395V44.2086ZM133.637 41.5256H128.716V39.5097H132.583V38.2673H125.197V36.672H132.298V32.703H123.659V33.9309H130.795V35.4682H123.679V39.5097H127.208V41.5256H122.34V42.7825H133.637V41.5256ZM147.793 37.4744H140.652V33.9938H147.696V32.7756H139.13V38.683H142.63V41.5062H137.761V42.7535H149.059V41.5062H144.138V38.683H147.793V37.4744ZM155.483 32.0504C152.771 32.0552 151.026 32.9351 151.031 34.4289C151.026 35.8888 152.771 36.7638 155.483 36.759C158.215 36.7638 159.931 35.8888 159.931 34.4289C159.931 32.9351 158.215 32.0552 155.483 32.0504ZM149.861 38.7265H154.724V39.9012H151.191V44.0635H159.757V39.9012H156.237V38.7265H161.12V37.4986H149.861V38.7265ZM152.607 34.4289C152.597 33.6457 153.67 33.2203 155.483 33.2203C157.282 33.2203 158.369 33.6457 158.369 34.4289C158.369 35.183 157.282 35.5939 155.483 35.5891C153.67 35.5939 152.597 35.183 152.607 34.4289ZM152.689 42.8356V41.1098H158.278V42.8356H152.689ZM176.581 41.4675H173.975V38.3108C174.932 37.7403 175.512 36.8702 175.512 35.7921C175.512 33.8246 173.569 32.5242 170.905 32.5193C168.242 32.5242 166.313 33.8246 166.318 35.7921C166.313 36.8895 166.907 37.7742 167.893 38.3398V41.4675H165.283V42.7148H176.581V41.4675ZM167.806 35.7921C167.806 34.5062 169.054 33.7279 170.905 33.7327C172.742 33.7279 174.018 34.5062 174.018 35.7921C174.018 37.0587 172.742 37.866 170.905 37.866C169.054 37.866 167.806 37.0587 167.806 35.7921ZM169.397 41.4675V38.8957C169.866 38.9972 170.369 39.0504 170.905 39.0504C171.451 39.0504 171.964 38.9972 172.438 38.8957V41.4675H169.397ZM181.82 34.4917V34.4289H184.402V33.2203H181.84V31.8087H180.307V33.2203H177.721V34.4289H180.307V34.4917C180.307 35.9855 179.273 37.4358 177.339 38.0159L178.059 39.2051C179.529 38.7652 180.554 37.808 181.09 36.5994C181.661 37.6678 182.686 38.4993 184.107 38.8812L184.827 37.7017C182.879 37.1844 181.82 35.8501 181.82 34.4917ZM179.345 41.8736C179.34 43.3481 180.945 44.2037 183.551 44.1989C186.162 44.2037 187.767 43.3481 187.767 41.8736C187.767 40.4088 186.162 39.5822 183.551 39.5773C180.945 39.5822 179.34 40.4088 179.345 41.8736ZM180.858 41.8736C180.849 41.1436 181.83 40.7521 183.551 40.7472C185.296 40.7521 186.253 41.1436 186.258 41.8736C186.253 42.6133 185.296 43.029 183.551 43.029C181.83 43.029 180.849 42.6133 180.858 41.8736ZM184.035 36.4786H186.215V39.3356H187.733V31.8619H186.215V35.2507H184.035V36.4786ZM199.16 31.8619H197.657V44.2086H199.16V38.0352H201.065V36.7831H199.16V31.8619ZM189.415 34.98H196.705V33.7521H193.852V32.0359H192.334V33.7521H189.415V34.98ZM189.985 38.6878C189.975 40.3943 191.3 41.5932 193.103 41.5932C194.882 41.5932 196.202 40.3943 196.211 38.6878C196.202 36.9814 194.882 35.7776 193.103 35.7776C191.3 35.7776 189.975 36.9814 189.985 38.6878ZM191.44 38.6878C191.43 37.6872 192.136 37.0249 193.103 37.0249C194.055 37.0249 194.747 37.6872 194.756 38.6878C194.747 39.703 194.055 40.346 193.103 40.3363C192.136 40.346 191.43 39.703 191.44 38.6878ZM211.898 31.8619H210.366V44.2086H211.898V31.8619ZM201.664 40.8101L202.462 42.0283C206.783 39.9738 208.21 36.8508 208.214 33.172H202.292V34.3757H206.667C206.397 37.1892 204.898 39.2728 201.664 40.8101Z" fill="#313131"/>
<path fill-rule="evenodd" clip-rule="evenodd" d="M73.4461 25.7688C74.4184 25.5131 75.4551 25.8127 76.1424 26.5555C76.8297 27.297 77.0613 28.3579 76.7447 29.3258L74.8163 35.2167C74.6326 35.7768 74.0378 36.0812 73.4824 35.8983C72.9284 35.7141 72.6273 35.1111 72.811 34.5524L74.7395 28.6601C74.8476 28.33 74.6781 28.1005 74.6001 28.0173C74.5223 27.9327 74.3022 27.7474 73.9743 27.834L51.134 33.8397C50.7706 33.9353 50.6831 34.2361 50.6626 34.3608C50.6436 34.4856 50.629 34.7983 50.9442 35.006L55.6261 38.0777C56.1142 38.3982 56.253 39.0595 55.9331 39.5548C55.7252 39.8766 55.3737 40.0494 55.0176 40.0398C54.8304 40.0348 54.6418 39.9799 54.4731 39.8687L49.7912 36.7956C48.8634 36.1872 48.398 35.1243 48.5776 34.0203C48.7572 32.9149 49.5356 32.0547 50.6073 31.7731L73.4461 25.7688ZM70.9523 40.2288C71.1374 39.6673 71.7337 39.3616 72.2876 39.5472C72.8416 39.7314 73.1427 40.3344 72.959 40.8946L69.3737 51.8494C69.0263 52.9091 68.1292 53.6366 67.0314 53.7481C66.9085 53.7619 66.7872 53.7657 66.6661 53.7625C65.7117 53.737 64.8531 53.2215 64.3692 52.3631L58.873 42.6141C58.6331 42.1863 58.7119 41.6476 59.0668 41.3098L67.4982 33.2502C67.9226 32.8445 68.5898 32.8624 68.9903 33.2902C69.3908 33.7179 69.3714 34.3935 68.947 34.7992L61.1196 42.2828L66.2056 51.3035C66.3906 51.6315 66.6961 51.6368 66.8232 51.626C66.9476 51.6123 67.2496 51.5435 67.367 51.1851L70.9523 40.2288Z" fill="#4378FF"/>
<defs>
<filter id="filter0_d" x="0" y="0" width="277" height="76" filterUnits="userSpaceOnUse" color-interpolation-filters="sRGB">
<feFlood flood-opacity="0" result="BackgroundImageFix"/>
<feColorMatrix in="SourceAlpha" type="matrix" values="0 0 0 0 0 0 0 0 0 0 0 0 0 0 0 0 0 0 127 0" result="hardAlpha"/>
<feOffset/>
<feGaussianBlur stdDeviation="5.5"/>
<feComposite in2="hardAlpha" operator="out"/>
<feColorMatrix type="matrix" values="0 0 0 0 0.6875 0 0 0 0 0.6875 0 0 0 0 0.6875 0 0 0 0.25 0"/>
<feBlend mode="normal" in2="BackgroundImageFix" result="effect1_dropShadow"/>
<feBlend mode="normal" in="SourceGraphic" in2="effect1_dropShadow" result="shape"/>
</filter>
</defs>
</svg>
