<svg width="56" height="56" viewBox="0 0 56 56" fill="none" xmlns="http://www.w3.org/2000/svg">
<circle cx="28" cy="28" r="28" fill="#D1A62B"/>
<path d="M27.384 18.7956C23.6133 18.779 21.1188 21.2901 21.1271 24.6133C21.1354 27.8204 23.4807 30.1243 26.5221 30.1243C28.3785 30.1243 30.0111 29.2459 30.8646 27.779H31.047C31.0304 31.4171 29.6547 33.5884 27.1934 33.5884C25.6519 33.5884 24.616 32.7265 24.3011 31.3923H21.2845C21.6575 34.1934 23.9199 36.232 27.1934 36.232C31.3536 36.232 34.0055 32.8508 34.0055 26.9917C33.9972 20.8011 30.6989 18.8122 27.384 18.7956ZM24.0939 24.5387C24.0773 22.7238 25.4945 21.2652 27.4006 21.2652C29.2983 21.2652 30.6823 22.7901 30.6906 24.5221C30.6989 26.2707 29.232 27.7956 27.3591 27.7956C25.453 27.7956 24.1022 26.3619 24.0939 24.5387Z" fill="white"/>
</svg>
