<svg width="56" height="56" viewBox="0 0 56 56" fill="none" xmlns="http://www.w3.org/2000/svg">
<circle cx="28" cy="28" r="28" fill="#FF7300"/>
<path d="M27.5166 36.232C31.1878 36.232 33.8729 34.1519 33.8564 31.2928C33.8729 29.1547 32.5138 27.6215 30.1105 27.2983V27.1657C31.9751 26.7762 33.2348 25.4088 33.2182 23.4945C33.2348 20.9006 31.0055 18.7956 27.5746 18.7956C24.2431 18.7956 21.6575 20.7514 21.5829 23.5939H24.5166C24.5746 22.1768 25.9503 21.2818 27.5497 21.2818C29.1989 21.2818 30.2762 22.2431 30.2762 23.6685C30.2762 25.1519 29.0166 26.1547 27.2099 26.1547H25.7017V28.5083H27.2099C29.4227 28.5083 30.732 29.6022 30.732 31.1354C30.732 32.6354 29.3895 33.663 27.5083 33.663C25.7514 33.663 24.3923 32.768 24.3177 31.3923H21.2348C21.3094 34.2597 23.895 36.232 27.5166 36.232Z" fill="white"/>
</svg>
