<svg width="56" height="56" viewBox="0 0 56 56" fill="none" xmlns="http://www.w3.org/2000/svg">
<circle cx="28" cy="28" r="28" fill="#E51F6E"/>
<path d="M27.5166 36.232C31.2707 36.232 33.9558 34.2182 33.9641 31.4503C33.9558 29.3039 32.3398 27.5387 30.3177 27.2238V27.116C32.0663 26.7431 33.3011 25.2017 33.3177 23.3453C33.3011 20.7182 30.8481 18.7956 27.5166 18.7956C24.1685 18.7956 21.7155 20.7182 21.7155 23.3453C21.7155 25.2017 22.9254 26.7431 24.7072 27.116V27.2238C22.6685 27.5387 21.0608 29.3039 21.0691 31.4503C21.0608 34.2182 23.7376 36.232 27.5166 36.232ZM24.2182 31.2348C24.2017 29.6188 25.6022 28.442 27.5166 28.442C29.4227 28.442 30.8149 29.6271 30.8149 31.2348C30.8149 32.7928 29.5138 33.8785 27.5166 33.8785C25.5028 33.8785 24.2017 32.7928 24.2182 31.2348ZM24.6906 23.6354C24.6906 22.1851 25.826 21.1823 27.5166 21.1823C29.1823 21.1823 30.3343 22.1851 30.3343 23.6354C30.3343 25.1105 29.1492 26.1298 27.5166 26.1298C25.8674 26.1298 24.6906 25.1105 24.6906 23.6354Z" fill="white"/>
</svg>
