<svg width="56" height="56" viewBox="0 0 56 56" fill="none" xmlns="http://www.w3.org/2000/svg">
<circle cx="28" cy="28" r="28" fill="#8934E0"/>
<path d="M27.9751 36.2044C31.6381 36.2044 34.1989 33.7845 34.1989 30.395C34.1989 27.1298 31.8619 24.7762 28.7044 24.7762C27.3122 24.7762 26.0773 25.3149 25.4144 26.0608H25.2569L25.779 21.5525H33.2873V19H23.2597L22.2486 28.605H25.058C25.5967 27.6105 26.5663 27.1464 27.884 27.1547C29.8398 27.1713 31.2403 28.547 31.2403 30.4779C31.2403 32.3674 29.8812 33.7348 27.9751 33.7348C26.3674 33.7348 25.0746 32.7486 24.9669 31.3646H22C22.0912 34.1823 24.5939 36.2044 27.9751 36.2044Z" fill="white"/>
</svg>
