<svg width="320" height="69" viewBox="0 0 320 69" fill="none" xmlns="http://www.w3.org/2000/svg">
<rect width="320" height="69" rx="15" fill="#F2F2F2"/>
<path d="M70.1409 35.232H63.0221V36.1146H69.0304V38.9945H70.1409V35.232ZM61.5428 31.6105C61.5345 33.1105 62.7113 34.163 64.2901 34.1588C65.1851 34.163 65.9475 33.8149 66.4406 33.239H69.0304V34.6851H70.1409V28.4945H69.0304V29.9945H66.4365C65.9475 29.4227 65.1809 29.0787 64.2901 29.0829C62.7113 29.0746 61.5345 30.1312 61.5428 31.6105ZM62.5994 31.6105C62.5994 30.674 63.3039 30.0235 64.2901 30.0235C65.239 30.0235 65.9599 30.674 65.9599 31.6105C65.9599 32.576 65.239 33.2141 64.2901 33.2141C63.3039 33.2141 62.5994 32.576 62.5994 31.6105ZM66.9254 32.3315C66.9876 32.1077 67.0249 31.8633 67.0249 31.6105C67.0249 31.3619 66.9876 31.1257 66.9254 30.9061H69.0304V32.3315H66.9254ZM80.1185 29.1575H75.3367V30.0608H78.9292C78.7138 31.7182 77.2138 33.0276 74.7814 33.7072L75.2414 34.5773C78.2828 33.7196 80.1102 31.826 80.1185 29.1575ZM76.5756 38.8536H83.4417V34.8881H76.5756V38.8536ZM77.6613 37.9627V35.7707H82.3395V37.9627H77.6613ZM80.1558 32.058H82.3312V34.453H83.4417V28.5028H82.3312V31.1381H80.1558V32.058ZM88.2686 30.471V29.1285H87.1912V30.471C87.1912 31.6644 86.4329 33.0193 85.0117 33.6367L85.6166 34.5028C86.6318 34.0594 87.3487 33.2141 87.7382 32.232C88.1152 33.1146 88.7948 33.8439 89.7603 34.2334L90.3528 33.3757C88.9937 32.837 88.2686 31.6561 88.2686 30.471ZM86.8722 36.297H92.9094V38.9945H94.0075V35.3936H86.8722V36.297ZM90.6926 34.7928H91.7285V32.1036H92.955V34.8508H94.0075V28.5028H92.955V31.1796H91.7285V28.6892H90.6926V34.7928ZM100.21 28.6685C97.8441 28.6685 96.456 29.3066 96.456 30.471C96.456 31.6519 97.8441 32.2901 100.21 32.2983C102.576 32.2901 103.956 31.6519 103.956 30.471C103.956 29.3066 102.576 28.6685 100.21 28.6685ZM95.4325 33.8273H105.004V32.9365H95.4325V33.8273ZM96.572 35.4682H102.696V36.2928H96.5927V38.895H104.093V38.0331H97.6825V37.0925H103.79V34.6354H96.572V35.4682ZM97.6203 30.471C97.612 29.8577 98.5402 29.4931 100.21 29.4972C101.892 29.4931 102.816 29.8577 102.816 30.471C102.816 31.1257 101.892 31.4613 100.21 31.4613C98.5402 31.4613 97.612 31.1257 97.6203 30.471ZM118.305 34.0138H114.062V33.1022H117.207V32.2362H111.083V31.3412H116.867V30.5124H111.083V29.663H117.137V28.7804H109.964V33.1022H112.947V34.0138H108.713V34.9006H118.305V34.0138ZM109.864 37.2831C109.864 38.3936 111.178 38.9779 113.507 38.9779C115.815 38.9779 117.128 38.3936 117.137 37.2831C117.128 36.1851 115.815 35.5801 113.507 35.5884C111.178 35.5801 109.864 36.1851 109.864 37.2831ZM110.983 37.2831C110.975 36.7196 111.853 36.4213 113.507 36.4213C115.148 36.4213 116.018 36.7196 116.026 37.2831C116.018 37.855 115.148 38.1409 113.507 38.1326C111.853 38.1409 110.975 37.855 110.983 37.2831ZM124.288 30.2348H122.245V28.8052H121.143V30.2348H119.079V31.134H124.288V30.2348ZM119.419 34.1796C119.411 35.6133 120.372 36.6202 121.694 36.6202C123.02 36.6202 123.969 35.6133 123.977 34.1796C123.969 32.7666 123.02 31.7638 121.694 31.7638C120.372 31.7638 119.411 32.7666 119.419 34.1796ZM120.397 34.1796C120.397 33.3052 120.936 32.6961 121.694 32.692C122.448 32.6961 122.991 33.3052 122.991 34.1796C122.991 35.0704 122.448 35.6713 121.694 35.663C120.936 35.6713 120.397 35.0704 120.397 34.1796ZM124.777 38.5014H125.825V33.7776H127.035V38.9945H128.096V28.4945H127.035V32.8702H125.825V28.7307H124.777V38.5014ZM136.064 31.5939V30.471H138.343V29.5511H132.596V30.471H134.962V31.5939C134.953 33.3674 133.797 35.3481 132.206 36.1105L132.865 36.989C134.058 36.3964 135.04 35.0994 135.521 33.6036C135.998 34.9751 136.93 36.1602 138.111 36.7279L138.741 35.8494C137.15 35.0994 136.056 33.2472 136.064 31.5939ZM139.47 38.9945H140.585V33.5994H142.267V32.6588H140.585V28.4945H139.47V38.9945ZM152.348 34.4116H142.776V35.3191H146.99V38.9903H148.084V35.3191H152.348V34.4116ZM143.311 32.7376L143.729 33.616C145.428 33.3467 146.916 32.4972 147.558 31.2997C148.2 32.4972 149.688 33.3467 151.407 33.616L151.818 32.7376C149.837 32.4724 148.217 31.2997 148.192 30.0069H151.449V29.1202H143.663V30.0069H146.932C146.895 31.2997 145.271 32.4724 143.311 32.7376ZM159.757 30.6657V30.5456H162.036V29.6506H159.773V28.4489H158.65V29.6506H156.367V30.5456H158.65V30.6657C158.65 31.971 157.656 33.1519 156.048 33.6119L156.587 34.4903C157.83 34.105 158.754 33.297 159.218 32.261C159.686 33.2017 160.585 33.9392 161.804 34.2831L162.309 33.4337C160.705 32.982 159.757 31.855 159.757 30.6657ZM157.092 38.0994L157.502 38.9448C159.089 38.6961 160.395 37.9793 161 36.9807C161.605 37.9834 162.914 38.7169 164.509 38.9655L164.92 38.1036C163.167 37.8467 161.816 36.9599 161.613 35.9779H164.493V35.0829H157.515V35.9779H160.391C160.188 36.9807 158.849 37.8425 157.092 38.0994ZM163.212 34.5608H164.327V31.9337H165.848V31.0097H164.327V28.4945H163.212V34.5608ZM174.947 31.5691H168.814V28.8757H167.712V32.4599H174.947V31.5691ZM166.432 34.6727H176.041V33.7818H166.432V34.6727ZM167.633 38.7459H175.013V37.8384H168.74V35.6713H167.633V38.7459ZM188.5 35.232H181.381V36.1146H187.39V38.9945H188.5V35.232ZM179.902 31.6105C179.894 33.1105 181.071 34.163 182.649 34.1588C183.544 34.163 184.307 33.8149 184.8 33.239H187.39V34.6851H188.5V28.4945H187.39V29.9945H184.796C184.307 29.4227 183.54 29.0787 182.649 29.0829C181.071 29.0746 179.894 30.1312 179.902 31.6105ZM180.959 31.6105C180.959 30.674 181.663 30.0235 182.649 30.0235C183.598 30.0235 184.319 30.674 184.319 31.6105C184.319 32.576 183.598 33.2141 182.649 33.2141C181.663 33.2141 180.959 32.576 180.959 31.6105ZM185.285 32.3315C185.347 32.1077 185.384 31.8633 185.384 31.6105C185.384 31.3619 185.347 31.1257 185.285 30.9061H187.39V32.3315H185.285ZM194.898 28.6685C192.532 28.6685 191.143 29.3066 191.143 30.471C191.143 31.6519 192.532 32.2901 194.898 32.2983C197.264 32.2901 198.643 31.6519 198.643 30.471C198.643 29.3066 197.264 28.6685 194.898 28.6685ZM190.12 33.8273H199.692V32.9365H190.12V33.8273ZM191.259 35.4682H197.384V36.2928H191.28V38.895H198.78V38.0331H192.37V37.0925H198.478V34.6354H191.259V35.4682ZM192.308 30.471C192.3 29.8577 193.228 29.4931 194.898 29.4972C196.58 29.4931 197.504 29.8577 197.504 30.471C197.504 31.1257 196.58 31.4613 194.898 31.4613C193.228 31.4613 192.3 31.1257 192.308 30.471ZM212.172 28.4945H211.062V30.3011H208.849V31.2044H211.062V33.8978H212.172V28.4945ZM203.383 33.0525L203.976 33.9392C205.219 33.5124 206.122 32.634 206.574 31.5028C207.042 32.5097 207.912 33.297 209.064 33.6948L209.657 32.8287C208.074 32.3315 207.109 31.0843 207.117 29.7459V28.8343H206.006V29.7459C206.002 31.2251 205.02 32.5304 203.383 33.0525ZM205.306 35.2735H211.07V36.1644H205.327V38.8619H212.533V37.971H206.421V37.0014H212.172V34.395H205.306V35.2735ZM222.543 28.4945H221.433V31.1713H219.473V32.087H221.433V34.7431H222.543V28.4945ZM213.796 33.7983L214.372 34.6809C215.627 34.221 216.547 33.2804 217.007 32.1077C217.463 33.1436 218.329 33.9848 219.51 34.395L220.078 33.5083C218.495 32.9738 217.546 31.6809 217.546 30.3508V30.1271H219.808V29.2196H214.14V30.1271H216.419V30.3591C216.419 31.8094 215.42 33.2265 213.796 33.7983ZM215.478 37.018C215.47 38.2652 216.821 38.9862 219.025 38.9945C221.226 38.9862 222.572 38.2652 222.576 37.018C222.572 35.7666 221.226 35.0373 219.025 35.0373C216.821 35.0373 215.47 35.7666 215.478 37.018ZM216.581 37.018C216.572 36.3052 217.488 35.8992 219.025 35.8992C220.558 35.8992 221.47 36.3052 221.474 37.018C221.47 37.7224 220.558 38.1285 219.025 38.1202C217.488 38.1285 216.572 37.7224 216.581 37.018ZM232.342 28.4945H231.24V38.9945H232.342V33.674H234.025V32.75H232.342V28.4945ZM224.105 31.047H230.325V30.1395H227.805V28.6312H226.695V30.1395H224.105V31.047ZM224.644 34.2666C224.639 35.7044 225.742 36.703 227.258 36.7072C228.758 36.703 229.86 35.7044 229.865 34.2666C229.86 32.8329 228.758 31.8218 227.258 31.8218C225.742 31.8218 224.639 32.8329 224.644 34.2666ZM225.709 34.2666C225.7 33.3633 226.359 32.7417 227.258 32.7417C228.145 32.7417 228.796 33.3633 228.804 34.2666C228.796 35.174 228.145 35.7831 227.258 35.779C226.359 35.7831 225.7 35.174 225.709 34.2666ZM237.733 31.3619V29.4517H236.656V31.4116C236.656 33.2017 235.877 35.0622 234.389 35.9489L235.085 36.7776C236.104 36.1561 236.825 35.0207 237.211 33.6906C237.571 34.9047 238.234 35.9572 239.216 36.5497L239.842 35.6878C238.433 34.8301 237.733 33.0442 237.733 31.3619ZM238.698 33.1105H240.335V38.4765H241.383V28.6975H240.335V32.1865H238.698V33.1105ZM242.494 38.9945H243.563V28.4945H242.494V38.9945ZM254.514 36.7652H252.21V33.9972C253.056 33.5207 253.565 32.779 253.565 31.8508C253.565 30.1975 251.941 29.1119 249.683 29.1036C247.433 29.1119 245.813 30.1975 245.813 31.8508C245.813 32.7914 246.339 33.5456 247.205 34.018V36.7652H244.905V37.6851H254.514V36.7652ZM246.894 31.8508C246.894 30.7155 248.038 29.9945 249.683 30.0028C251.319 29.9945 252.48 30.7155 252.48 31.8508C252.48 32.9738 251.319 33.7072 249.683 33.7072C248.038 33.7072 246.894 32.9738 246.894 31.8508ZM248.299 36.7652V34.4282C248.721 34.5235 249.186 34.5773 249.683 34.5773C250.184 34.5773 250.657 34.5235 251.087 34.424V36.7652H248.299ZM257.178 29.5138H255.807L255.914 35.5552H257.07L257.178 29.5138ZM255.666 37.25C255.657 37.7058 256.039 38.0787 256.494 38.0787C256.946 38.0787 257.327 37.7058 257.327 37.25C257.327 36.7942 256.946 36.4213 256.494 36.4213C256.039 36.4213 255.657 36.7942 255.666 37.25Z" fill="#9C9C9C"/>
</svg>
