<svg width="56" height="56" viewBox="0 0 56 56" fill="none" xmlns="http://www.w3.org/2000/svg">
<circle cx="28" cy="28" r="28" fill="#B54F0A"/>
<path d="M27.7155 36.232C31.4613 36.2486 33.9724 33.7541 33.9641 30.3812C33.9724 27.1657 31.6188 24.8536 28.5773 24.8536C26.7127 24.8536 25.0801 25.7238 24.2265 27.1989H24.0525C24.0608 23.6188 25.4282 21.4392 27.8895 21.4392C29.4392 21.4392 30.4669 22.3011 30.7818 23.5939H33.7983C33.4171 20.8508 31.163 18.7956 27.8895 18.7956C23.7376 18.7956 21.0939 22.1768 21.0856 27.9945C21.0856 34.2431 24.3923 36.2155 27.7155 36.232ZM24.3923 30.4724C24.4088 28.6989 25.8425 27.1906 27.7403 27.1906C29.6381 27.1906 31.0055 28.6409 31.0055 30.4558C31.0055 32.3039 29.5967 33.7624 27.6989 33.7624C25.7845 33.7624 24.3923 32.2459 24.3923 30.4724Z" fill="white"/>
</svg>
