<svg width="332" height="188" viewBox="0 0 332 188" fill="none" xmlns="http://www.w3.org/2000/svg">
<path d="M117.349 97.7514H111.838V98.6409H116.203C115.966 100.705 114.11 102.315 111.21 103.137L111.664 103.978C115.164 102.982 117.339 100.797 117.349 97.7514ZM113.259 108.938H121.149V104.413H113.259V108.938ZM114.303 108.068V105.273H120.085V108.068H114.303ZM117.378 101H120.076V103.901H121.149V96.9682H120.076V100.101H117.378V101ZM126.799 99.337V97.703H125.765V99.337C125.765 100.72 124.788 102.315 123.183 103.021L123.773 103.862C124.967 103.33 125.842 102.291 126.287 101.116C126.722 102.189 127.554 103.084 128.714 103.552L129.284 102.721C127.728 102.112 126.799 100.72 126.799 99.337ZM125.301 105.863H132.436V109.112H133.49V104.983H125.301V105.863ZM129.845 104.239H130.851V101.039H132.475V104.307H133.49V96.9682H132.475V100.14H130.851V97.1906H129.845V104.239ZM149.161 96.9586H148.117V101.909H146.357V97.2293H145.342V108.474H146.357V102.818H148.117V109.112H149.161V96.9586ZM139.396 105.96H140.16C141.494 105.96 142.886 105.873 144.578 105.564L144.453 104.616C142.969 104.911 141.668 104.998 140.469 105.003V98.4378H139.396V105.96ZM160.961 104.79H152.782V105.651H159.888V109.112H160.961V104.79ZM151.08 100.555C151.07 102.276 152.414 103.475 154.232 103.465C155.286 103.47 156.18 103.059 156.746 102.373H159.888V104.113H160.961V96.9586H159.888V98.7472H156.741C156.18 98.0608 155.286 97.6499 154.232 97.6547C152.414 97.645 151.07 98.8536 151.08 100.555ZM152.105 100.555C152.105 99.4047 152.994 98.5635 154.232 98.5635C155.431 98.5635 156.34 99.4047 156.34 100.555C156.34 101.735 155.431 102.557 154.232 102.557C152.994 102.557 152.105 101.735 152.105 100.555ZM157.229 101.483C157.321 101.198 157.374 100.884 157.374 100.555C157.374 100.231 157.321 99.922 157.229 99.6367H159.888V101.483H157.229ZM173.003 96.9586H171.93V109.131H173.003V96.9586ZM163.441 102.131C163.441 104.722 164.727 106.366 166.544 106.366C168.343 106.366 169.648 104.722 169.648 102.131C169.648 99.5497 168.343 97.9061 166.544 97.8964C164.727 97.9061 163.441 99.5497 163.441 102.131ZM164.475 102.131C164.475 100.159 165.326 98.8633 166.544 98.8536C167.763 98.8633 168.604 100.159 168.604 102.131C168.604 104.113 167.763 105.409 166.544 105.409C165.326 105.409 164.475 104.113 164.475 102.131ZM181.017 104.084H180.001V108.948H184.227V104.084H183.231V105.602H181.017V104.084ZM178.793 100.294C178.783 101.957 180.098 103.088 181.945 103.088C183.593 103.088 184.841 102.146 185.053 100.72H187.601V103.398H188.674V96.9586H187.601V99.8204H185.048C184.812 98.4185 183.574 97.5 181.945 97.5C180.098 97.5 178.783 98.6312 178.793 100.294ZM179.818 100.294C179.818 99.1823 180.698 98.3992 181.945 98.3992C183.173 98.3992 184.053 99.1823 184.053 100.294C184.053 101.406 183.173 102.199 181.945 102.209C180.698 102.199 179.818 101.406 179.818 100.294ZM181.017 108.097V106.434H183.231V108.097H181.017ZM184.391 108.222L184.952 109.044C186.03 108.58 186.769 107.72 187.161 106.724C187.533 107.739 188.268 108.595 189.39 109.044L189.95 108.222C188.461 107.671 187.688 106.327 187.698 105.041V104.007H186.644V105.041C186.634 106.279 185.861 107.613 184.391 108.222ZM193.967 97.8964C192.169 97.9061 190.912 99.5497 190.922 102.131C190.912 104.722 192.169 106.366 193.967 106.366C195.664 106.366 196.877 104.872 196.993 102.489H199.71V109.131H200.774V96.9586H199.71V101.599H196.984C196.814 99.3273 195.62 97.9061 193.967 97.8964ZM191.946 102.131C191.946 100.159 192.768 98.8633 193.967 98.8536C195.156 98.8633 195.988 100.159 195.988 102.131C195.988 104.113 195.156 105.409 193.967 105.409C192.768 105.409 191.946 104.113 191.946 102.131ZM213.927 106.646H211.162V103.34C212.168 102.798 212.777 101.938 212.777 100.855C212.777 98.9696 210.93 97.732 208.329 97.7224C205.738 97.732 203.891 98.9696 203.891 100.855C203.891 101.952 204.52 102.827 205.554 103.369V106.646H202.799V107.546H213.927V106.646ZM204.926 100.855C204.926 99.4917 206.337 98.5925 208.329 98.6022C210.311 98.5925 211.742 99.4917 211.742 100.855C211.742 102.209 210.311 103.117 208.329 103.117C206.337 103.117 204.926 102.209 204.926 100.855ZM206.608 106.646V103.765C207.13 103.896 207.706 103.968 208.329 103.968C208.962 103.968 209.552 103.896 210.079 103.76V106.646H206.608ZM220.336 98.0994H218.992L219.089 105.206H220.239L220.336 98.0994ZM218.789 107.198C218.779 107.681 219.186 108.077 219.669 108.077C220.152 108.077 220.549 107.681 220.549 107.198C220.549 106.714 220.152 106.318 219.669 106.318C219.186 106.318 218.779 106.714 218.789 107.198ZM128.239 127.171H116.956V128.379H128.239V127.171ZM118.31 133.064H126.876V129.23H118.31V133.064ZM118.397 126.334H126.987V125.164H119.924V124.294H126.591V123.148H119.924V122.336H126.895V121.171H118.397V126.334ZM119.808 131.836V130.434H125.397V131.836H119.808ZM129.911 127.959C129.911 130.376 130.554 132.382 131.831 134.103H133.465C132.483 132.827 131.724 130.255 131.724 127.959C131.724 125.667 132.483 123.09 133.465 121.814H131.831C130.554 123.535 129.911 125.546 129.911 127.959ZM134.286 123.598H137.351V132H139.121V123.598H142.176V122.099H134.286V123.598ZM143.517 122.099V132H145.234V125.164H145.316L148.062 131.971H149.343L152.089 125.189H152.176V132H153.892V122.099H151.707L148.763 129.293H148.647L145.703 122.099H143.517ZM155.672 122.099V132H157.388V125.164H157.47L160.216 131.971H161.497L164.243 125.189H164.33V132H166.046V122.099H163.861L160.917 129.293H160.801L157.857 122.099H155.672ZM170.862 127.963C170.862 125.546 170.219 123.54 168.943 121.819H167.309C168.29 123.095 169.049 125.667 169.049 127.963C169.049 130.255 168.29 132.831 167.309 134.108H168.943C170.219 132.387 170.862 130.376 170.862 127.963ZM179.337 122.302H173.158V123.182H178.263C178.263 124.149 178.234 125.633 177.906 127.669L178.979 127.756C179.327 125.503 179.327 123.898 179.337 122.941V122.302ZM172.472 129.535L172.607 130.434C174.783 130.443 177.645 130.385 180.197 129.989L180.139 129.177C178.877 129.331 177.5 129.419 176.156 129.472V125.773H175.092V129.501C174.159 129.525 173.27 129.53 172.472 129.535ZM180.903 133.112H181.976V126.972H183.948V126.044H181.976V120.959H180.903V133.112ZM197.715 120.959H196.642V128.278H197.715V125.116H199.542V124.188H197.715V120.959ZM188.24 123.134H195.482V122.254H192.397V120.862H191.334V122.254H188.24V123.134ZM188.936 125.909C188.926 127.224 190.096 128.075 191.866 128.075C193.606 128.075 194.776 127.224 194.785 125.909C194.776 124.604 193.606 123.743 191.866 123.743C190.096 123.743 188.926 124.604 188.936 125.909ZM189.961 125.909C189.951 125.106 190.715 124.575 191.866 124.575C192.997 124.575 193.761 125.106 193.77 125.909C193.761 126.731 192.997 127.243 191.866 127.253C190.715 127.243 189.951 126.731 189.961 125.909ZM190.038 132.948H197.715V128.974H190.038V132.948ZM191.092 132.068V129.834H196.651V132.068H191.092ZM203.327 122.428H200.581V123.318H202.394C202.307 125.561 201.857 127.814 200.339 129.718L201.19 130.211C202.96 127.852 203.317 124.981 203.327 122.428ZM203.066 130.511L203.907 131.014C204.898 129.68 205.425 128.142 205.706 126.624H207.465V132.493H208.49V121.287H207.465V125.735H205.846C205.996 124.555 206.02 123.419 206.025 122.428H203.714V123.318H205.087C205.038 125.595 204.743 128.365 203.066 130.511ZM209.728 133.112H210.762V120.959H209.728V133.112ZM90.0906 148.367V147.327H92.7881V146.08H85.822V147.327H88.5437V148.367C88.534 150.474 87.3206 152.776 85.3675 153.67L86.2425 154.869C87.6928 154.182 88.7757 152.756 89.3413 151.059C89.9069 152.631 90.9801 153.926 92.4401 154.559L93.2667 153.36C91.2798 152.529 90.0906 150.397 90.0906 148.367ZM94.1756 157.209H95.708V144.862H94.1756V157.209ZM107.203 144.862H105.7V157.209H107.203V151.035H109.108V149.783H107.203V144.862ZM97.4575 147.98H104.748V146.752H101.895V145.036H100.377V146.752H97.4575V147.98ZM98.0279 151.688C98.0183 153.394 99.3428 154.593 101.146 154.593C102.925 154.593 104.245 153.394 104.254 151.688C104.245 149.981 102.925 148.778 101.146 148.778C99.3428 148.778 98.0183 149.981 98.0279 151.688ZM99.483 151.688C99.4734 150.687 100.179 150.025 101.146 150.025C102.098 150.025 102.79 150.687 102.799 151.688C102.79 152.703 102.098 153.346 101.146 153.336C100.179 153.346 99.4734 152.703 99.483 151.688ZM114.063 147.303V147.177H116.644V145.964H114.082V144.809H112.55V145.964H109.963V147.177H112.55V147.303C112.55 148.584 111.476 149.773 109.538 150.247L110.195 151.412C111.704 151.05 112.777 150.218 113.333 149.14C113.903 150.126 114.962 150.871 116.427 151.195L117.099 150.035C115.165 149.628 114.063 148.488 114.063 147.303ZM111.824 152.959H118.457V153.858H111.839V157.107H120.366V155.927H113.362V154.975H119.97V151.794H111.824V152.959ZM116.306 149.024H118.457V151.301H119.97V144.862H118.457V147.816H116.306V149.024ZM135.397 152.751H126.971V153.955H133.879V157.209H135.397V152.751ZM125.216 148.536C125.206 150.315 126.613 151.572 128.474 151.567C129.499 151.572 130.389 151.18 130.973 150.523H133.879V152.152H135.397V144.862H133.879V146.573H130.973C130.389 145.925 129.499 145.534 128.474 145.539C126.613 145.529 125.206 146.786 125.216 148.536ZM126.661 148.536C126.661 147.501 127.415 146.825 128.474 146.825C129.489 146.825 130.263 147.501 130.263 148.536C130.263 149.604 129.489 150.276 128.474 150.281C127.415 150.276 126.661 149.604 126.661 148.536ZM131.621 149.295C131.679 149.053 131.713 148.802 131.713 148.536C131.713 148.28 131.679 148.038 131.626 147.806H133.879V149.295H131.621ZM150.219 144.862H148.692V153.796H150.219V149.59H151.955V148.333H150.219V144.862ZM140.986 151.702H141.991C144.684 151.707 146.125 151.63 147.739 151.311L147.57 150.078C146.105 150.387 144.819 150.46 142.499 150.465V147.105H146.526V145.882H140.986V151.702ZM142.301 156.977H150.703V155.744H143.814V152.858H142.301V156.977ZM156.919 148.782V148.135H159.529V146.921H156.933V145.123H155.406V146.921H152.776V148.135H155.416V148.782C155.411 150.726 154.323 152.829 152.37 153.704L153.216 154.878C154.628 154.245 155.643 152.93 156.179 151.374C156.701 152.819 157.668 154.047 159.003 154.666L159.853 153.51C157.949 152.606 156.914 150.61 156.919 148.782ZM160.724 157.209H162.246V151.026H164.151V149.744H162.246V144.862H160.724V157.209ZM175.859 150.605H164.731V151.446H175.859V150.605ZM166.075 153.225H173.403V154.26H166.094V156.948H174.863V156.164H167.167V155.004H174.467V152.423H166.075V153.225ZM166.142 146.099H173.355V147.105H166.181V149.686H174.641V148.903H167.244V147.84H174.428V145.326H166.142V146.099ZM189.867 144.959H188.794V151.146H189.867V148.497H191.695V147.598H189.867V144.959ZM180.595 148.101C180.586 149.696 181.93 150.798 183.757 150.798C185.584 150.798 186.909 149.696 186.909 148.101C186.909 146.506 185.584 145.413 183.757 145.403C181.93 145.413 180.586 146.506 180.595 148.101ZM181.649 148.101C181.639 147.047 182.539 146.293 183.757 146.302C184.965 146.293 185.865 147.047 185.865 148.101C185.865 149.164 184.965 149.928 183.757 149.928C182.539 149.928 181.639 149.164 181.649 148.101ZM182.113 152.587H188.804V153.873H182.142V156.948H190.312V156.077H183.196V154.685H189.867V151.727H182.113V152.587ZM195.711 145.896C193.913 145.906 192.647 147.55 192.656 150.131C192.647 152.722 193.913 154.366 195.711 154.366C197.51 154.366 198.776 152.722 198.786 150.131C198.776 147.55 197.51 145.906 195.711 145.896ZM193.671 150.131C193.671 148.159 194.513 146.863 195.711 146.854C196.93 146.863 197.751 148.159 197.751 150.131C197.751 152.113 196.93 153.409 195.711 153.409C194.513 153.409 193.671 152.113 193.671 150.131ZM200.797 157.112H201.87V150.731H203.901V149.812H201.87V144.959H200.797V157.112ZM207.105 145.152H206.032V149.155H209.551V150.354H204.562V151.224H215.643V150.354H210.605V149.155H214.192V145.152H213.119V146.322H207.105V145.152ZM205.906 153.061H213.158V154.144H205.935V156.977H214.579V156.126H206.989V154.936H214.212V152.239H205.906V153.061ZM207.105 148.323V147.134H213.119V148.323H207.105ZM226.282 144.959H225.209V157.112H226.282V150.876H228.129V149.977H226.282V144.959ZM216.614 153.747L217.484 154.356C219.688 152.026 220.336 149.174 220.346 146.283H217V147.182H219.326C219.195 149.604 218.456 151.872 216.614 153.747ZM220.104 154.569L220.984 155.169C223.256 152.519 223.681 149.164 223.691 146.283H220.732V147.182H222.681C222.579 149.715 222.009 152.418 220.104 154.569ZM239.89 154.646H237.125V151.34C238.13 150.798 238.74 149.938 238.74 148.855C238.74 146.97 236.893 145.732 234.292 145.722C231.701 145.732 229.854 146.97 229.854 148.855C229.854 149.952 230.483 150.827 231.517 151.369V154.646H228.762V155.546H239.89V154.646ZM230.889 148.855C230.889 147.492 232.3 146.593 234.292 146.602C236.274 146.593 237.705 147.492 237.705 148.855C237.705 150.209 236.274 151.117 234.292 151.117C232.3 151.117 230.889 150.209 230.889 148.855ZM232.571 154.646V151.765C233.093 151.896 233.668 151.968 234.292 151.968C234.925 151.968 235.515 151.896 236.042 151.76V154.646H232.571ZM242.747 153.148V153.206H243.936V153.148C243.955 151.959 244.265 151.436 245.115 150.914C245.966 150.392 246.469 149.648 246.469 148.575C246.469 147.066 245.357 145.964 243.646 145.964C242.079 145.964 240.823 146.931 240.755 148.584H242.002C242.079 147.463 242.863 146.999 243.646 146.999C244.545 146.999 245.27 147.588 245.27 148.526C245.27 149.29 244.835 149.831 244.265 150.18C243.327 150.75 242.766 151.311 242.747 153.148ZM242.505 155.198C242.495 155.681 242.901 156.077 243.385 156.077C243.868 156.077 244.265 155.681 244.265 155.198C244.265 154.714 243.868 154.318 243.385 154.318C242.901 154.318 242.495 154.714 242.505 155.198Z" fill="black" fill-opacity="0.65"/>
<path d="M189.172 6.25154C188.919 2.74164 186.006 0 182.542 0L172.286 0C168.808 0 165.909 2.74164 165.656 6.25154L162.862 54.6219H161.048L158.076 6.25154C157.823 2.74164 154.909 0 151.431 0L141.175 0C137.696 0 134.783 2.74164 134.545 6.25154L130.428 62.8618H138.588L142.557 8.23998L150.064 8.23998L153.482 56.6103C153.72 59.8942 156.292 62.5154 159.458 62.8317V62.8618H160.112H163.62H164.274V62.8317C167.455 62.5154 170.027 59.8942 170.25 56.6103L173.668 8.23998L181.16 8.23998L185.129 62.8618H193.289L189.172 6.25154Z" fill="#E3E3E3"/>
<path d="M255.854 6.25154C255.601 2.74164 252.688 0 249.226 0L238.972 0C235.494 0 232.596 2.74164 232.344 6.25154L229.55 54.6219H227.737L224.765 6.25154C224.512 2.74164 221.599 0 218.137 0L207.883 0C204.405 0 201.492 2.74164 201.255 6.25154L197.138 62.8618H205.297L209.265 8.23998L216.77 8.23998L220.188 56.6103C220.425 59.8942 222.996 62.5154 226.162 62.8317V62.8618H226.816H230.323H230.977V62.8317C234.157 62.5154 236.728 59.8942 236.951 56.6103L240.369 8.23998L247.873 8.23998L251.841 62.8618H260L255.854 6.25154Z" fill="#E3E3E3"/>
<path d="M108.413 0C104.949 0 102.048 2.7567 101.811 6.2666L99.2952 54.6219H97.445L94.8991 6.25154C94.6475 2.74164 91.7464 0 88.2976 0L65 0V8.23998L86.9211 8.23998L90.3254 56.6103C90.5771 60.1202 93.4782 62.8618 96.9269 62.8618H99.8132C103.277 62.8618 106.178 60.1051 106.415 56.5952L109.789 8.23998L131.711 8.23998V0L108.413 0Z" fill="#E3E3E3"/>
</svg>
