<svg width="55" height="55" viewBox="0 0 55 55" fill="none" xmlns="http://www.w3.org/2000/svg">
<circle cx="27.5" cy="27.5" r="26" stroke="#4378FF" stroke-width="3"/>
<path d="M18.0868 26.4661C17.5158 25.8659 16.5663 25.8422 15.9661 26.4132C15.3659 26.9842 15.3422 27.9337 15.9132 28.5339L18.0868 26.4661ZM24.1351 35L23.0484 36.0339C23.3279 36.3277 23.7144 36.4958 24.1198 36.4999C24.5253 36.5041 24.9152 36.3439 25.2006 36.0558L24.1351 35ZM40.0654 21.0559C40.6486 20.4674 40.6443 19.5177 40.0559 18.9346C39.4674 18.3514 38.5177 18.3557 37.9346 18.9441L40.0654 21.0559ZM15.9132 28.5339L23.0484 36.0339L25.2219 33.9661L18.0868 26.4661L15.9132 28.5339ZM25.2006 36.0558L40.0654 21.0559L37.9346 18.9441L23.0697 33.9441L25.2006 36.0558Z" fill="#4378FF"/>
</svg>
