<svg width="55" height="55" viewBox="0 0 55 55" fill="none" xmlns="http://www.w3.org/2000/svg">
<circle cx="27.5" cy="27.5" r="26" stroke="#4378FF" stroke-width="3"/>
<path fill-rule="evenodd" clip-rule="evenodd" d="M29.1386 12.6608L40.0792 16.2879C41.303 16.6943 42.125 17.7887 42.125 19.0142V29.6396C42.125 32.8603 40.8928 35.9786 38.6572 38.4122C37.6335 39.5273 36.3199 40.4857 34.642 41.3433L28.7284 44.3592C28.5436 44.452 28.3403 44.5 28.1352 44.5C27.9318 44.5 27.7284 44.452 27.5436 44.3592L21.6182 41.3417C19.9369 40.4825 18.6216 39.5241 17.5996 38.4138C15.3606 35.977 14.125 32.8571 14.125 29.6332C14.125 28.9836 14.6843 28.4556 15.3725 28.4556C16.0606 28.4556 16.6199 28.9836 16.6199 29.6332C16.6199 32.2923 17.6369 34.8618 19.4826 36.8714C20.3047 37.7658 21.3911 38.5497 22.803 39.2697L28.1352 41.9849L33.4555 39.2713C34.864 38.5529 35.9504 37.769 36.7742 36.8714C38.6165 34.8634 39.6318 32.2971 39.6318 29.6396V19.0142C39.6318 18.787 39.4792 18.5854 39.2538 18.5102L28.3131 14.8831C28.1928 14.8431 28.0589 14.8431 27.9369 14.8831L16.9979 18.5102C16.7725 18.5854 16.6199 18.787 16.6199 19.0142V22.0542C16.6199 22.7053 16.0606 23.2333 15.3725 23.2333C14.6843 23.2333 14.125 22.7053 14.125 22.0542V19.0142C14.125 17.7887 14.9487 16.6943 16.1725 16.2879L27.1114 12.6608C27.7657 12.4464 28.486 12.4464 29.1386 12.6608ZM26.9493 32.2081C26.6171 32.2081 26.3019 32.0833 26.068 31.8625L22.9222 28.8929C22.4358 28.4321 22.4358 27.6898 22.9222 27.229C23.4103 26.7682 24.1985 26.7682 24.6849 27.229L26.9493 29.3649L32.5459 24.0835C33.0324 23.6243 33.8222 23.6243 34.3086 24.0835C34.7951 24.5426 34.7951 25.2882 34.3086 25.7474L27.8307 31.8625C27.5968 32.0833 27.2798 32.2081 26.9493 32.2081Z" fill="#4378FF"/>
</svg>
