<svg width="360" height="157" viewBox="0 0 360 157" fill="none" xmlns="http://www.w3.org/2000/svg">
<rect width="360" height="157" fill="#F8F8F8"/>
<circle cx="180.5" cy="62.5" r="26" stroke="#4378FF" stroke-width="3"/>
<path d="M171.087 61.4661C170.516 60.8659 169.566 60.8422 168.966 61.4132C168.366 61.9842 168.342 62.9337 168.913 63.5339L171.087 61.4661ZM177.135 70L176.048 71.0339C176.328 71.3277 176.714 71.4958 177.12 71.4999C177.525 71.5041 177.915 71.3439 178.201 71.0558L177.135 70ZM193.065 56.0559C193.649 55.4674 193.644 54.5177 193.056 53.9346C192.467 53.3514 191.518 53.3557 190.935 53.9441L193.065 56.0559ZM168.913 63.5339L176.048 71.0339L178.222 68.9661L171.087 61.4661L168.913 63.5339ZM178.201 71.0558L193.065 56.0559L190.935 53.9441L176.07 68.9441L178.201 71.0558Z" fill="#4378FF"/>
<path d="M76.4101 108.738V112.105H78.1159V112.94H76.4101V116.917H75.4136V108.738H76.4101ZM74.3003 114.529C73.5581 114.673 72.8204 114.771 72.0872 114.825C71.354 114.879 70.4353 114.906 69.331 114.906H68.9944H68.1235V109.726H73.1421V110.552H69.1111V114.071H69.4792C70.5356 114.071 71.4094 114.046 72.1007 113.995C72.792 113.941 73.4833 113.844 74.1746 113.703L74.3003 114.529ZM69.3445 116.091H70.3321V118.955H76.9308V119.781H69.3445V116.091ZM87.5557 113.38H89.441V114.233H87.5557V120.032H86.5591V108.747H87.5557V113.38ZM82.5819 112.419C82.5819 113.015 82.7016 113.606 82.941 114.192C83.1834 114.779 83.5171 115.307 83.9421 115.777C84.37 116.247 84.8533 116.612 85.392 116.872L84.8084 117.635C84.1949 117.336 83.6518 116.896 83.1789 116.316C82.7061 115.735 82.35 115.078 82.1106 114.345C81.949 114.866 81.7275 115.353 81.4462 115.808C81.1679 116.263 80.8447 116.666 80.4766 117.016C80.1085 117.363 79.712 117.638 79.287 117.842L78.7124 117.07C79.2601 116.815 79.7539 116.446 80.1938 115.961C80.6337 115.476 80.9794 114.926 81.2307 114.309C81.4821 113.69 81.6093 113.06 81.6123 112.419V111.521H79.0267V110.713H81.6033V108.954H82.5999V110.713H85.1406V111.521H82.5819V112.419ZM90.684 118.138H91.905L90.9264 121.595H89.9837L90.684 118.138ZM102.093 114.044C101.827 114.379 101.492 114.641 101.088 114.83C100.684 115.018 100.242 115.113 99.7634 115.113C99.2068 115.113 98.7055 114.993 98.2596 114.753C97.8137 114.511 97.4636 114.176 97.2092 113.748C96.9579 113.32 96.8337 112.835 96.8366 112.294C96.8337 111.752 96.9579 111.267 97.2092 110.839C97.4636 110.408 97.8137 110.073 98.2596 109.834C98.7055 109.591 99.2068 109.468 99.7634 109.465C100.239 109.468 100.676 109.563 101.074 109.748C101.475 109.934 101.81 110.193 102.08 110.525H105.016V108.756H106.012V117.097H105.016V114.044H102.093ZM97.7883 112.294C97.7883 112.665 97.8721 112.998 98.0397 113.295C98.2103 113.588 98.4452 113.818 98.7445 113.986C99.0467 114.15 99.3864 114.233 99.7634 114.233C100.132 114.233 100.464 114.15 100.76 113.986C101.059 113.818 101.294 113.588 101.465 113.295C101.635 112.998 101.721 112.665 101.721 112.294C101.721 111.925 101.635 111.595 101.465 111.301C101.294 111.008 101.059 110.778 100.76 110.61C100.464 110.443 100.132 110.357 99.7634 110.354C99.3864 110.357 99.0467 110.443 98.7445 110.61C98.4452 110.775 98.2103 111.005 98.0397 111.301C97.8721 111.595 97.7883 111.925 97.7883 112.294ZM105.016 111.351H102.529C102.63 111.65 102.681 111.964 102.681 112.294C102.681 112.608 102.632 112.916 102.533 113.218H105.016V111.351ZM99.7634 116.226V118.955H106.326V119.781H98.7669V116.226H99.7634ZM116.718 108.738V112.105H118.424V112.94H116.718V116.917H115.721V108.738H116.718ZM114.608 114.529C113.866 114.673 113.128 114.771 112.395 114.825C111.662 114.879 110.743 114.906 109.639 114.906H109.302H108.431V109.726H113.45V110.552H109.419V114.071H109.787C110.843 114.071 111.717 114.046 112.408 113.995C113.1 113.941 113.791 113.844 114.482 113.703L114.608 114.529ZM109.652 116.091H110.64V118.955H117.238V119.781H109.652V116.091ZM127.486 113.281V108.747H128.474V120.032H127.486V114.116H124.793V113.281H127.486ZM124.82 109.977C124.814 111.674 124.405 113.193 123.594 114.533C122.786 115.871 121.483 116.986 119.684 117.878L119.137 117.088C122.043 115.678 123.602 113.577 123.814 110.785H119.631V109.977H124.82ZM138.695 120.05V108.747H139.682V120.05H138.695ZM132.042 116.477C133.063 116.474 134.005 116.444 134.87 116.387C135.738 116.328 136.648 116.22 137.599 116.064L137.698 116.899C136.72 117.055 135.783 117.163 134.888 117.222C133.993 117.282 133.018 117.312 131.961 117.312H131.019V112.994H135.247V110.624H131.001V109.798H136.253V113.811H132.042V116.477ZM147.366 109.807H148.515V119H147.366V111.001H147.312L145.077 112.482V111.333L147.366 109.807ZM153.973 109.681C154.643 109.681 155.219 109.868 155.701 110.242C156.183 110.613 156.551 111.153 156.806 111.863C157.06 112.569 157.187 113.416 157.187 114.403C157.187 115.4 157.06 116.251 156.806 116.958C156.554 117.664 156.188 118.202 155.706 118.574C155.227 118.942 154.649 119.126 153.973 119.126C153.297 119.126 152.718 118.942 152.236 118.574C151.757 118.202 151.39 117.664 151.136 116.958C150.885 116.251 150.759 115.4 150.759 114.403C150.759 113.416 150.886 112.569 151.14 111.863C151.395 111.153 151.763 110.613 152.245 110.242C152.727 109.868 153.303 109.681 153.973 109.681ZM151.872 114.403C151.872 115.457 152.019 116.299 152.312 116.931L155.154 111.162C154.83 110.839 154.437 110.677 153.973 110.677C153.533 110.677 153.156 110.823 152.842 111.113C152.528 111.403 152.287 111.828 152.119 112.388C151.954 112.944 151.872 113.616 151.872 114.403ZM153.973 118.111C154.416 118.111 154.794 117.968 155.109 117.68C155.423 117.393 155.662 116.972 155.827 116.419C155.992 115.862 156.074 115.19 156.074 114.403C156.074 113.347 155.924 112.499 155.625 111.858L152.774 117.617C153.098 117.947 153.497 118.111 153.973 118.111ZM161.538 119.144C160.9 119.144 160.344 118.993 159.868 118.69C159.395 118.388 159.031 117.968 158.777 117.429C158.522 116.89 158.395 116.277 158.395 115.588C158.395 114.894 158.525 114.276 158.786 113.734C159.046 113.193 159.413 112.771 159.886 112.469C160.358 112.166 160.903 112.015 161.52 112.015C162.001 112.015 162.44 112.106 162.835 112.289C163.23 112.469 163.552 112.723 163.8 113.052C164.048 113.381 164.201 113.76 164.258 114.188H163.172C163.115 113.969 163.014 113.769 162.871 113.586C162.73 113.404 162.546 113.259 162.319 113.151C162.094 113.04 161.834 112.985 161.538 112.985C161.131 112.985 160.773 113.091 160.465 113.304C160.156 113.516 159.917 113.817 159.746 114.206C159.576 114.592 159.491 115.041 159.491 115.552C159.491 116.076 159.574 116.536 159.742 116.931C159.91 117.326 160.147 117.631 160.456 117.846C160.764 118.059 161.125 118.165 161.538 118.165C161.948 118.165 162.298 118.06 162.588 117.851C162.878 117.638 163.073 117.345 163.172 116.971H164.258C164.201 117.384 164.053 117.755 163.813 118.084C163.577 118.413 163.263 118.672 162.871 118.861C162.482 119.049 162.037 119.144 161.538 119.144ZM165.599 119V112.105H166.659V113.191H166.749C166.892 112.817 167.124 112.528 167.444 112.325C167.768 112.118 168.152 112.015 168.598 112.015C169.044 112.015 169.421 112.117 169.729 112.32C170.037 112.521 170.277 112.811 170.447 113.191H170.519C170.699 112.823 170.967 112.536 171.323 112.329C171.679 112.12 172.099 112.015 172.584 112.015C173.003 112.015 173.37 112.102 173.684 112.276C174.001 112.449 174.248 112.714 174.425 113.07C174.604 113.423 174.694 113.862 174.694 114.385V119H173.599V114.403C173.599 113.924 173.469 113.57 173.208 113.339C172.951 113.109 172.617 112.994 172.207 112.994C171.893 112.994 171.622 113.06 171.395 113.191C171.17 113.32 170.998 113.5 170.878 113.73C170.759 113.96 170.699 114.224 170.699 114.52V119H169.595V114.296C169.595 114.038 169.536 113.811 169.419 113.613C169.306 113.416 169.146 113.263 168.939 113.155C168.736 113.048 168.502 112.994 168.239 112.994C167.967 112.994 167.712 113.067 167.476 113.214C167.239 113.357 167.049 113.559 166.906 113.82C166.765 114.08 166.695 114.373 166.695 114.7V119H165.599ZM187.595 108.747H188.592V120.05H187.595V108.747ZM182.595 109.618C183.151 109.621 183.647 109.784 184.081 110.107C184.518 110.431 184.859 110.89 185.104 111.485C185.352 112.078 185.477 112.766 185.477 113.55C185.477 114.337 185.352 115.029 185.104 115.624C184.859 116.22 184.518 116.679 184.081 117.002C183.644 117.323 183.148 117.483 182.595 117.483C182.035 117.483 181.537 117.323 181.1 117.002C180.663 116.679 180.322 116.221 180.076 115.629C179.834 115.033 179.713 114.34 179.713 113.55C179.713 112.763 179.834 112.074 180.076 111.481C180.322 110.888 180.663 110.431 181.1 110.107C181.537 109.784 182.035 109.621 182.595 109.618ZM182.595 110.507C182.221 110.51 181.887 110.639 181.594 110.893C181.303 111.144 181.077 111.5 180.916 111.961C180.754 112.419 180.673 112.949 180.673 113.55C180.673 114.155 180.754 114.688 180.916 115.148C181.077 115.609 181.303 115.965 181.594 116.217C181.887 116.468 182.221 116.594 182.595 116.594C182.969 116.594 183.3 116.468 183.587 116.217C183.877 115.965 184.103 115.609 184.265 115.148C184.426 114.688 184.507 114.155 184.507 113.55C184.507 112.949 184.426 112.419 184.265 111.961C184.103 111.5 183.877 111.144 183.587 110.893C183.3 110.639 182.969 110.51 182.595 110.507ZM199.262 113.398H201.147V114.233H199.262V120.032H198.274V108.747H199.262V113.398ZM193.363 108.882H194.36V110.561H197.179V111.387H190.463V110.561H193.363V108.882ZM193.875 112.32C194.402 112.32 194.875 112.431 195.293 112.653C195.712 112.871 196.04 113.178 196.277 113.573C196.516 113.965 196.637 114.412 196.64 114.915C196.637 115.418 196.516 115.865 196.277 116.257C196.04 116.649 195.712 116.955 195.293 117.173C194.875 117.391 194.402 117.501 193.875 117.501C193.345 117.501 192.869 117.391 192.448 117.173C192.026 116.955 191.696 116.649 191.46 116.257C191.224 115.862 191.107 115.415 191.11 114.915C191.107 114.415 191.224 113.968 191.46 113.573C191.696 113.178 192.026 112.871 192.448 112.653C192.869 112.431 193.345 112.32 193.875 112.32ZM193.875 116.657C194.219 116.66 194.527 116.588 194.8 116.441C195.075 116.292 195.291 116.084 195.446 115.817C195.605 115.551 195.686 115.25 195.689 114.915C195.686 114.58 195.605 114.279 195.446 114.013C195.291 113.743 195.075 113.534 194.8 113.384C194.527 113.232 194.219 113.155 193.875 113.155C193.528 113.155 193.215 113.232 192.937 113.384C192.661 113.534 192.446 113.743 192.29 114.013C192.135 114.279 192.058 114.58 192.061 114.915C192.058 115.25 192.135 115.551 192.29 115.817C192.446 116.084 192.661 116.292 192.937 116.441C193.215 116.588 193.528 116.66 193.875 116.657ZM207.391 115.66V117.788H212.095V118.632H201.762V117.788H206.403V115.66H203.054V112.177H209.806V110.408H203.027V109.582H210.793V112.994H204.042V114.834H211.054V115.66H207.391ZM225.238 108.657V112.015H226.84V113.187H225.238V117.047H223.819V108.657H225.238ZM222.499 112.302C222.496 112.85 222.359 113.344 222.086 113.784C221.817 114.224 221.446 114.568 220.973 114.816C220.503 115.065 219.981 115.189 219.406 115.189C218.829 115.189 218.304 115.065 217.831 114.816C217.358 114.568 216.985 114.224 216.713 113.784C216.441 113.344 216.306 112.85 216.309 112.302C216.306 111.752 216.441 111.258 216.713 110.821C216.985 110.381 217.358 110.039 217.831 109.793C218.304 109.545 218.829 109.421 219.406 109.421C219.984 109.421 220.508 109.543 220.978 109.789C221.447 110.034 221.817 110.377 222.086 110.817C222.359 111.254 222.496 111.749 222.499 112.302ZM217.696 112.302C217.693 112.629 217.766 112.917 217.916 113.169C218.066 113.417 218.271 113.61 218.531 113.748C218.794 113.886 219.086 113.954 219.406 113.954C219.73 113.954 220.021 113.886 220.282 113.748C220.542 113.61 220.747 113.417 220.897 113.169C221.046 112.917 221.121 112.629 221.121 112.302C221.121 111.973 221.046 111.685 220.897 111.436C220.747 111.185 220.542 110.992 220.282 110.857C220.021 110.719 219.73 110.651 219.406 110.651C219.086 110.651 218.794 110.719 218.531 110.857C218.271 110.992 218.066 111.185 217.916 111.436C217.766 111.685 217.693 111.973 217.696 112.302ZM217.885 116.167H219.29V118.762H225.686V119.907H217.885V116.167ZM233.586 112.846V111.705H235.62V108.666H237.03V117.052H235.62V112.846H233.586ZM230.938 113.07C230.678 113.687 230.308 114.224 229.829 114.682C229.353 115.14 228.783 115.482 228.119 115.71L227.392 114.565C227.984 114.37 228.492 114.088 228.913 113.717C229.335 113.342 229.654 112.916 229.87 112.437C230.088 111.955 230.197 111.457 230.197 110.942V110.633H227.805V109.492H234.008V110.633H231.634V110.951C231.634 111.418 231.737 111.876 231.944 112.325C232.15 112.771 232.457 113.172 232.864 113.528C233.271 113.884 233.76 114.156 234.332 114.345L233.627 115.463C233.001 115.253 232.461 114.942 232.006 114.529C231.551 114.113 231.195 113.627 230.938 113.07ZM230.911 116.311V118.762H237.317V119.907H229.502V116.311H230.911ZM242.775 109.937H245.473V111.059H238.663V109.937H241.37V108.657H242.775V109.937ZM247.708 108.666V112.271H249.311V113.434H247.708V117.24H246.29V108.666H247.708ZM242.075 115.898C241.521 115.898 241.03 115.81 240.602 115.633C240.177 115.454 239.847 115.201 239.61 114.875C239.374 114.545 239.256 114.165 239.256 113.734C239.256 113.301 239.374 112.917 239.61 112.585C239.847 112.253 240.177 111.996 240.602 111.813C241.03 111.631 241.521 111.539 242.075 111.539C242.619 111.539 243.103 111.631 243.525 111.813C243.949 111.996 244.28 112.253 244.517 112.585C244.753 112.917 244.871 113.301 244.871 113.734C244.871 114.165 244.753 114.545 244.517 114.875C244.28 115.201 243.949 115.454 243.525 115.633C243.103 115.81 242.619 115.898 242.075 115.898ZM240.625 113.734C240.622 113.959 240.68 114.153 240.8 114.318C240.919 114.48 241.089 114.604 241.307 114.691C241.525 114.777 241.781 114.819 242.075 114.816C242.362 114.816 242.615 114.774 242.833 114.691C243.055 114.604 243.225 114.48 243.345 114.318C243.468 114.153 243.531 113.959 243.534 113.734C243.531 113.504 243.468 113.307 243.345 113.142C243.225 112.974 243.056 112.847 242.838 112.76C242.619 112.671 242.365 112.626 242.075 112.626C241.781 112.626 241.525 112.671 241.307 112.76C241.089 112.847 240.919 112.974 240.8 113.142C240.68 113.307 240.622 113.504 240.625 113.734ZM240.355 116.567H241.76V118.762H248.157V119.907H240.355V116.567ZM261.176 108.657H262.585V115.427H261.176V113.914H258.478C258.202 114.222 257.864 114.462 257.463 114.632C257.062 114.803 256.627 114.887 256.157 114.884C255.585 114.884 255.069 114.764 254.608 114.525C254.147 114.285 253.785 113.951 253.522 113.523C253.259 113.096 253.128 112.611 253.131 112.069C253.128 111.536 253.257 111.059 253.517 110.637C253.781 110.215 254.141 109.884 254.599 109.645C255.057 109.406 255.57 109.286 256.139 109.286C256.615 109.286 257.055 109.37 257.459 109.537C257.863 109.705 258.202 109.941 258.478 110.247H261.176V108.657ZM256.157 113.69C256.471 113.687 256.754 113.619 257.005 113.488C257.26 113.356 257.459 113.167 257.602 112.922C257.746 112.677 257.818 112.392 257.818 112.069C257.818 111.755 257.745 111.478 257.598 111.239C257.454 110.996 257.257 110.809 257.005 110.677C256.754 110.546 256.471 110.48 256.157 110.48C255.831 110.48 255.541 110.546 255.286 110.677C255.032 110.809 254.833 110.996 254.689 111.239C254.545 111.478 254.474 111.755 254.474 112.069C254.474 112.395 254.545 112.681 254.689 112.926C254.833 113.169 255.032 113.357 255.286 113.492C255.541 113.624 255.831 113.69 256.157 113.69ZM261.176 112.774V111.391H259.084C259.138 111.628 259.165 111.854 259.165 112.069C259.165 112.302 259.136 112.537 259.079 112.774H261.176ZM261.176 117.101H254.761V115.983H262.585V120.122H261.176V117.101ZM272.609 108.747H273.605V114.798H272.609V108.747ZM267.509 109.295C268.075 109.292 268.582 109.4 269.031 109.618C269.48 109.837 269.83 110.143 270.081 110.538C270.336 110.933 270.463 111.384 270.463 111.89C270.463 112.395 270.336 112.844 270.081 113.236C269.83 113.628 269.48 113.933 269.031 114.152C268.582 114.37 268.075 114.478 267.509 114.475C266.943 114.478 266.435 114.37 265.983 114.152C265.534 113.933 265.182 113.628 264.928 113.236C264.674 112.841 264.546 112.392 264.546 111.89C264.546 111.384 264.674 110.933 264.928 110.538C265.182 110.143 265.534 109.837 265.983 109.618C266.435 109.4 266.943 109.292 267.509 109.295ZM267.509 110.139C267.126 110.136 266.783 110.209 266.481 110.359C266.179 110.505 265.942 110.713 265.772 110.983C265.604 111.249 265.522 111.551 265.525 111.89C265.522 112.228 265.604 112.531 265.772 112.801C265.942 113.067 266.179 113.275 266.481 113.425C266.783 113.574 267.126 113.649 267.509 113.649C267.889 113.649 268.229 113.574 268.528 113.425C268.83 113.275 269.067 113.067 269.237 112.801C269.408 112.531 269.493 112.228 269.493 111.89C269.493 111.551 269.408 111.249 269.237 110.983C269.067 110.713 268.83 110.505 268.528 110.359C268.229 110.209 267.889 110.136 267.509 110.139ZM266.297 115.373H267.276V116.747H272.617V115.373H273.605V119.88H266.297V115.373ZM267.276 117.546V119.063H272.617V117.546H267.276ZM283.835 120.032V108.747H284.822V120.032H283.835ZM277.236 116.253C278.155 116.25 279.057 116.208 279.943 116.127C280.832 116.043 281.728 115.906 282.632 115.714L282.767 116.567C281.803 116.765 280.866 116.907 279.956 116.993C279.05 117.08 278.122 117.124 277.173 117.124H276.258V109.86H277.236V116.253ZM295.492 113.209H297.378V114.044H295.492V120.05H294.496V108.747H295.492V113.209ZM288.247 116.378C289.324 116.375 290.254 116.347 291.035 116.293C291.816 116.236 292.607 116.133 293.409 115.983L293.535 116.845C292.697 116.995 291.877 117.095 291.075 117.146C290.273 117.197 289.294 117.222 288.139 117.222H287.25V109.852H292.521V110.669H288.247V116.378ZM298.576 109.807H299.824L299.734 116.405H298.665L298.576 109.807ZM299.204 119.072C299.057 119.072 298.92 119.036 298.791 118.964C298.665 118.889 298.565 118.789 298.49 118.663C298.419 118.538 298.384 118.401 298.387 118.255C298.384 118.108 298.419 117.972 298.49 117.846C298.565 117.721 298.665 117.622 298.791 117.55C298.92 117.475 299.057 117.438 299.204 117.438C299.351 117.438 299.487 117.475 299.613 117.55C299.738 117.622 299.837 117.721 299.909 117.846C299.984 117.972 300.021 118.108 300.021 118.255C300.021 118.401 299.984 118.538 299.909 118.663C299.837 118.789 299.738 118.889 299.613 118.964C299.487 119.036 299.351 119.072 299.204 119.072Z" fill="black"/>
</svg>
