<svg width="22" height="22" viewBox="0 0 22 22" fill="none" xmlns="http://www.w3.org/2000/svg">
<circle cx="11" cy="11" r="10" stroke="#B54F0A" stroke-width="2"/>
<path d="M11.5007 16.1354C13.6858 16.1451 15.1506 14.6899 15.1457 12.7224C15.1506 10.8467 13.7776 9.49795 12.0035 9.49795C10.9158 9.49795 9.96341 10.0055 9.46548 10.866H9.36396C9.3688 8.77765 10.1664 7.50624 11.6022 7.50624C12.5062 7.50624 13.1057 8.009 13.2894 8.76314H15.049C14.8267 7.16301 13.5118 5.96411 11.6022 5.96411C9.18026 5.96411 7.63814 7.93649 7.6333 11.3301C7.6333 14.9752 9.56217 16.1257 11.5007 16.1354ZM9.56217 12.7756C9.57184 11.741 10.4082 10.8612 11.5152 10.8612C12.6223 10.8612 13.4199 11.7072 13.4199 12.7659C13.4199 13.8439 12.5981 14.6948 11.491 14.6948C10.3743 14.6948 9.56217 13.8101 9.56217 12.7756Z" fill="#B54F0A"/>
</svg>
