<svg width="22" height="22" viewBox="0 0 22 22" fill="none" xmlns="http://www.w3.org/2000/svg">
<circle cx="11" cy="11" r="10" stroke="#8934E0" stroke-width="2"/>
<path d="M10.7345 16.7528C13.0238 16.7528 14.6243 15.2403 14.6243 13.1219C14.6243 11.0811 13.1637 9.61015 11.1903 9.61015C10.3201 9.61015 9.54834 9.94682 9.13398 10.413H9.03557L9.36188 7.5953H14.0546V6H7.78729L7.15539 12.0031H8.91126C9.24793 11.3816 9.85394 11.0915 10.6775 11.0967C11.8999 11.107 12.7752 11.9669 12.7752 13.1737C12.7752 14.3546 11.9258 15.2093 10.7345 15.2093C9.72963 15.2093 8.92162 14.5929 8.85428 13.7279H7C7.05698 15.489 8.6212 16.7528 10.7345 16.7528Z" fill="#8934E0"/>
</svg>
