<svg width="22" height="22" viewBox="0 0 22 22" fill="none" xmlns="http://www.w3.org/2000/svg">
<circle cx="11" cy="11" r="11" fill="#E51F6E"/>
<path d="M10.3846 16.1354C12.5745 16.1354 14.1408 14.9607 14.1457 13.346C14.1408 12.0939 13.1981 11.0642 12.0186 10.8805V10.8177C13.0386 10.6002 13.7589 9.70099 13.7686 8.61812C13.7589 7.08566 12.328 5.96411 10.3846 5.96411C8.43156 5.96411 7.00063 7.08566 7.00063 8.61812C7.00063 9.70099 7.70643 10.6002 8.74579 10.8177V10.8805C7.55656 11.0642 6.61872 12.0939 6.62355 13.346C6.61872 14.9607 8.18018 16.1354 10.3846 16.1354ZM8.46057 13.2203C8.4509 12.2776 9.26789 11.5912 10.3846 11.5912C11.4965 11.5912 12.3086 12.2825 12.3086 13.2203C12.3086 14.1292 11.5497 14.7625 10.3846 14.7625C9.20988 14.7625 8.4509 14.1292 8.46057 13.2203ZM8.73612 8.78732C8.73612 7.94132 9.39842 7.35638 10.3846 7.35638C11.3563 7.35638 12.0283 7.94132 12.0283 8.78732C12.0283 9.64781 11.337 10.2424 10.3846 10.2424C9.42259 10.2424 8.73612 9.64781 8.73612 8.78732Z" fill="white"/>
</svg>
