<svg width="22" height="22" viewBox="0 0 22 22" fill="none" xmlns="http://www.w3.org/2000/svg">
<circle cx="11" cy="11" r="11" fill="#D1A62B"/>
<path d="M10.6499 6.00005C8.45029 5.99038 6.99518 7.45516 7.00001 9.39369C7.00485 11.2646 8.37294 12.6085 10.1471 12.6085C11.23 12.6085 12.1823 12.096 12.6803 11.2404H12.7866C12.7769 13.3626 11.9745 14.6292 10.5387 14.6292C9.63951 14.6292 9.03523 14.1264 8.85153 13.3481H7.09186C7.3094 14.9821 8.62916 16.1713 10.5387 16.1713C12.9655 16.1713 14.5124 14.1989 14.5124 10.7811C14.5076 7.16994 12.5836 6.00972 10.6499 6.00005ZM8.73068 9.35019C8.72101 8.29148 9.54766 7.44066 10.6595 7.44066C11.7666 7.44066 12.5739 8.33016 12.5787 9.34052C12.5836 10.3605 11.7279 11.25 10.6354 11.25C9.52349 11.25 8.73551 10.4137 8.73068 9.35019Z" fill="white"/>
</svg>
