<svg width="22" height="22" viewBox="0 0 22 22" fill="none" xmlns="http://www.w3.org/2000/svg">
<circle cx="11" cy="11" r="10" stroke="#FF7300" stroke-width="2"/>
<path d="M11.3846 16.1354C13.5262 16.1354 15.0925 14.922 15.0828 13.2542C15.0925 12.0069 14.2996 11.1126 12.8977 10.9241V10.8467C13.9854 10.6195 14.7202 9.82185 14.7105 8.70513C14.7202 7.19201 13.4198 5.96411 11.4184 5.96411C9.47505 5.96411 7.96676 7.105 7.92325 8.76314H9.63458C9.66842 7.93649 10.4709 7.41439 11.4039 7.41439C12.3659 7.41439 12.9944 7.97516 12.9944 8.80665C12.9944 9.67198 12.2596 10.2569 11.2057 10.2569H10.3259V11.6299H11.2057C12.4965 11.6299 13.2603 12.268 13.2603 13.1623C13.2603 14.0373 12.4771 14.6368 11.3797 14.6368C10.3549 14.6368 9.56207 14.1147 9.51856 13.3122H7.72021C7.76372 14.9848 9.27201 16.1354 11.3846 16.1354Z" fill="#FF7300"/>
</svg>
