<svg width="380" height="139" viewBox="0 0 380 139" fill="none" xmlns="http://www.w3.org/2000/svg">
<rect width="380" height="138.938" rx="15" fill="#4378FF"/>
<path d="M85.0299 106.529L89.5325 111.031L85.0299 115.534" stroke="white" stroke-width="1.5" stroke-linecap="round" stroke-linejoin="round"/>
<path d="M34.0874 31.4886H23.0798V32.2137H34.0874V31.4886ZM24.4624 37.0818H32.7241V33.4465H24.4624V37.0818ZM24.5735 30.2607H32.7434V29.5501H25.4437V28.1916H32.3519V27.4955H25.4437V26.2289H32.6903V25.528H24.5735V30.2607ZM25.3132 36.3567V34.1474H31.8878V36.3567H25.3132ZM35.9964 32.0155C35.9964 34.3505 36.6103 36.4099 37.727 38.2034H38.5682C37.6352 36.7289 36.9584 34.2586 36.9584 32.0155C36.9584 29.7821 37.6303 27.3118 38.5682 25.8277H37.727C36.6103 27.6212 35.9964 29.6806 35.9964 32.0155ZM39.6839 27.1571H42.8213V36.1875H43.7979V27.1571H46.9256V26.2869H39.6839V27.1571ZM48.6135 26.2869V36.1875H49.5369V28.2932H49.6094L52.8967 36.1875H53.7669L57.0541 28.3028H57.1363V36.1875H58.0548V26.2869H56.9188L53.3801 34.8001H53.2883L49.7544 26.2869H48.6135ZM60.3303 26.2869V36.1875H61.2537V28.2932H61.3262L64.6135 36.1875H65.4837L68.7709 28.3028H68.8531V36.1875H69.7716V26.2869H68.6356L65.0969 34.8001H65.0051L61.4712 26.2869H60.3303ZM74.0485 32.0204C74.0485 29.6854 73.4346 27.626 72.3179 25.8325H71.4767C72.4097 27.307 73.0865 29.7773 73.0865 32.0204C73.0865 34.2538 72.4145 36.7241 71.4767 38.2082H72.3179C73.4346 36.4147 74.0485 34.3553 74.0485 32.0204ZM86.9018 31.6095H75.9087V32.3249H86.9018V31.6095ZM77.1656 27.9934C77.1656 29.4921 78.7996 30.3767 81.3956 30.3767C83.9819 30.3767 85.6207 29.4921 85.6207 27.9934C85.6207 26.4997 83.9819 25.6198 81.3956 25.6247C78.7996 25.6198 77.1656 26.4997 77.1656 27.9934ZM77.359 36.9658H85.6836V36.2358H78.2292V33.4706H77.359V36.9658ZM78.0551 27.9934C78.0455 26.9831 79.3749 26.3401 81.3956 26.3353C83.4212 26.3401 84.7457 26.9831 84.7457 27.9934C84.7457 29.0183 83.4212 29.6564 81.3956 29.6564C79.3749 29.6564 78.0455 29.0183 78.0551 27.9934ZM27.6385 49.5542V48.5148H30.336V47.2676H23.3698V48.5148H26.0915V49.5542C26.0818 51.6619 24.8684 53.9631 22.9154 54.8574L23.7904 56.0563C25.2407 55.3698 26.3235 53.9437 26.8892 52.2469C27.4548 53.818 28.528 55.1136 29.9879 55.7469L30.8146 54.548C28.8277 53.7165 27.6385 51.5846 27.6385 49.5542ZM31.7234 58.3961H33.2559V46.0494H31.7234V58.3961ZM44.7512 46.0494H43.2477V58.3961H44.7512V52.2227H46.6559V50.9706H44.7512V46.0494ZM35.0053 49.1675H42.2954V47.9396H39.4432V46.2234H37.9252V47.9396H35.0053V49.1675ZM35.5758 52.8753C35.5661 54.5818 36.8907 55.7807 38.6939 55.7807C40.4729 55.7807 41.7926 54.5818 41.8023 52.8753C41.7926 51.1689 40.4729 49.9651 38.6939 49.9651C36.8907 49.9651 35.5661 51.1689 35.5758 52.8753ZM37.0309 52.8753C37.0212 51.8747 37.727 51.2124 38.6939 51.2124C39.6462 51.2124 40.3375 51.8747 40.3472 52.8753C40.3375 53.8905 39.6462 54.5335 38.6939 54.5238C37.727 54.5335 37.0212 53.8905 37.0309 52.8753ZM51.6105 48.4907V48.365H54.192V47.1516H51.6298V45.9962H50.0974V47.1516H47.511V48.365H50.0974V48.4907C50.0974 49.7718 49.0241 50.961 47.0856 51.4347L47.7431 52.5998C49.2514 52.2372 50.3246 51.4057 50.8805 50.3277C51.4509 51.3139 52.5096 52.0584 53.9744 52.3823L54.6464 51.222C52.7127 50.816 51.6105 49.6751 51.6105 48.4907ZM49.3722 54.1468H56.0048V55.0459H49.3867V58.2945H57.9143V57.115H50.9095V56.1626H57.5179V52.9817H49.3722V54.1468ZM53.8536 50.2117H56.0048V52.4886H57.5179V46.0494H56.0048V49.0031H53.8536V50.2117ZM72.3452 46.0494H70.8176V54.9831H72.3452V50.7773H74.0807V49.5204H72.3452V46.0494ZM63.1118 52.8898H64.1173C66.81 52.8947 68.2506 52.8173 69.8652 52.4983L69.696 51.2655C68.2312 51.5749 66.9453 51.6474 64.6249 51.6523V48.2925H68.6518V47.0694H63.1118V52.8898ZM64.4267 58.164H72.8286V56.9313H65.9398V54.0452H64.4267V58.164ZM79.0449 49.97V49.3222H81.6554V48.1088H79.0594V46.3104H77.5318V48.1088H74.902V49.3222H77.5415V49.97C77.5367 51.9133 76.4489 54.0162 74.4959 54.8912L75.3419 56.066C76.7535 55.4327 77.7687 54.1177 78.3053 52.5611C78.8274 54.0066 79.7943 55.2345 81.1285 55.8532L81.9793 54.6979C80.0746 53.7939 79.0401 51.7973 79.0449 49.97ZM82.8495 58.3961H84.3723V52.2131H86.277V50.932H84.3723V46.0494H82.8495V58.3961ZM97.2164 46.1896H96.3752V58.2559H97.2164V46.1896ZM87.0838 51.3864C87.0838 53.9099 88.099 55.5245 89.6556 55.5197C91.1494 55.5245 92.1501 54.0452 92.2371 51.7006H93.9823V57.6226H94.8186V46.4748H93.9823V50.9706H92.2323C92.1211 48.6937 91.1301 47.2628 89.6556 47.2628C88.099 47.2628 87.0838 48.8677 87.0838 51.3864ZM87.9008 51.3864C87.8911 49.3898 88.5872 48.0604 89.6556 48.0604C90.7336 48.0604 91.4249 49.3898 91.4249 51.3864C91.4249 53.3781 90.7336 54.7172 89.6556 54.7124C88.5872 54.7172 87.8911 53.3781 87.9008 51.3864ZM112.678 46.1896H111.846V51.1012H109.883V46.4796H109.076V57.6081H109.883V51.8263H111.846V58.2559H112.678V46.1896ZM102.879 55.1861H103.638C105.576 55.1813 106.78 55.1233 108.225 54.809L108.133 54.0742C106.76 54.3691 105.591 54.4368 103.739 54.4368V48.4085H107.403V47.6882H102.879V55.1861ZM123.897 46.2041H123.032V55.2538H123.897V51.0045H125.763V50.2648H123.897V46.2041ZM114.548 48.4665H121.741V47.7462H118.575V46.2041H117.719V47.7462H114.548V48.4665ZM115.263 51.4347C115.254 52.7787 116.409 53.6392 118.145 53.6392C119.851 53.6392 121.011 52.7787 121.016 51.4347C121.011 50.0763 119.851 49.2061 118.145 49.2061C116.409 49.2061 115.254 50.0763 115.263 51.4347ZM116.08 51.4347C116.071 50.5162 116.897 49.8974 118.145 49.8974C119.368 49.8974 120.194 50.5162 120.204 51.4347C120.194 52.3387 119.368 52.9479 118.145 52.9382C116.897 52.9479 116.071 52.3387 116.08 51.4347ZM116.428 57.9658H124.487V57.2358H117.279V54.5093H116.428V57.9658ZM140.224 46.0494H138.706V49.1288H136.593V50.3712H138.706V53.3926H140.224V46.0494ZM129.835 52.1502L130.628 53.3539C132.098 52.8367 133.127 51.7731 133.669 50.4582C134.21 51.6233 135.187 52.566 136.56 53.03L137.319 51.8263C135.409 51.1882 134.413 49.6702 134.413 48.1571V48.0798H136.97V46.8519H130.29V48.0798H132.866V48.1716C132.866 49.8104 131.822 51.4734 129.835 52.1502ZM131.837 56.0515C131.832 57.5356 133.432 58.4009 136.042 58.4057C138.658 58.4009 140.258 57.5356 140.258 56.0515C140.258 54.5673 138.658 53.702 136.042 53.6972C133.432 53.702 131.832 54.5673 131.837 56.0515ZM133.35 56.0515C133.34 55.278 134.321 54.8671 136.042 54.8671C137.768 54.8671 138.745 55.278 138.749 56.0515C138.745 56.8201 137.768 57.2358 136.042 57.2262C134.321 57.2358 133.34 56.8201 133.35 56.0515ZM153.271 55.6695H148.35V53.2621H151.975V46.8664H150.462V48.8871H144.739V46.8664H143.216V53.2621H146.842V55.6695H141.973V56.9119H153.271V55.6695ZM144.739 52.039V50.1053H150.462V52.039H144.739ZM165.221 51.8602H154.175V52.5563H165.221V51.8602ZM155.528 54.316H162.963V55.481H155.557V58.0722H164.225V57.4147H156.413V56.1143H163.819V53.6488H155.528V54.316ZM155.591 47.2483H162.915V48.3698H155.634V50.8353H163.988V50.1778H156.485V48.9886H163.775V46.6053H155.591V47.2483ZM179.957 46.1896H179.125V58.2559H179.957V46.1896ZM169.573 55.1329L170.129 55.7856C171.366 55.0073 172.309 53.5231 172.735 51.7828C173.155 53.3926 174.059 54.7655 175.277 55.5003L175.809 54.8526C174.175 53.9147 173.136 51.8118 173.141 49.6847V48.3988H175.471V47.6737H169.863V48.3988H172.304V49.6847C172.304 51.9423 171.221 54.1564 169.573 55.1329ZM174.523 51.3235H176.703V57.5984H177.52V46.5086H176.703V50.6032H174.523V51.3235ZM187.242 53.8374C184.67 53.8422 183.041 54.6544 183.041 56.0418C183.041 57.4099 184.67 58.2172 187.242 58.2172C189.818 58.2172 191.447 57.4099 191.457 56.0418C191.447 54.6544 189.818 53.8422 187.242 53.8374ZM181.789 52.6095H192.772V51.8892H187.324V49.4865H186.478V51.8892H181.789V52.6095ZM183.118 47.5528H190.495V47.8671C190.49 48.8097 190.49 49.7041 190.166 50.9513L191.007 51.0528C191.336 49.8056 191.336 48.8436 191.341 47.8671V46.8277H183.118V47.5528ZM183.901 56.0418C183.891 55.1136 185.235 54.5287 187.242 54.519C189.253 54.5287 190.587 55.1136 190.597 56.0418C190.587 56.9361 189.253 57.5162 187.242 57.5162C185.235 57.5162 183.891 56.9361 183.901 56.0418ZM203.276 46.1896H202.411V53.1799H203.276V50.0763H205.142V49.3367H203.276V46.1896ZM193.927 48.2248H201.12V47.4997H197.954V46.0687H197.098V47.4997H193.927V48.2248ZM194.642 50.9658C194.633 52.2566 195.778 53.0832 197.524 53.0735C199.245 53.0832 200.39 52.2566 200.395 50.9658C200.39 49.6799 199.245 48.8629 197.524 48.8581C195.778 48.8629 194.633 49.6799 194.642 50.9658ZM195.459 50.9658C195.45 50.1247 196.276 49.5349 197.524 49.5397C198.747 49.5349 199.573 50.1247 199.583 50.9658C199.573 51.8215 198.747 52.4064 197.524 52.4016C196.276 52.4064 195.45 51.8215 195.459 50.9658ZM195.73 58.0818H203.276V53.7262H202.411V55.1426H196.581V53.7262H195.73V58.0818ZM196.581 57.3664V55.8387H202.411V57.3664H196.581ZM215.859 46.1896H215.008V58.2559H215.859V46.1896ZM206.81 55.0991H207.767C209.715 55.0991 211.6 54.9396 213.747 54.4997L213.626 53.7455C211.552 54.1854 209.647 54.3305 207.767 54.3305H207.656V47.3933H206.81V55.0991ZM227.364 46.1896H226.499V58.2704H227.364V51.7925H229.453V51.0577H227.364V46.1896ZM218.629 55.2151H219.557C221.902 55.2151 223.463 55.1426 225.368 54.7994L225.247 54.0404C223.415 54.3836 221.863 54.4755 219.557 54.4706H219.484V48.1039H224.251V47.3885H218.629V55.2151Z" fill="white"/>
<path d="M27.3139 105.592H23.2807V111.486H23.9886C25.6357 111.49 26.7027 111.441 27.9423 111.203L27.8284 110.319C26.7303 110.526 25.76 110.581 24.3753 110.588V106.483H27.3139V105.592ZM26.8477 108.789H29.1785V113.634H30.2628V104.794H29.1785V107.898H26.8477V108.789ZM40.8364 104.794H39.7453V109.228H40.8364V107.467H42.0691V106.569H40.8364V104.794ZM33.9683 107.063C33.9614 108.22 34.9697 109.045 36.3164 109.041C37.6562 109.045 38.6506 108.22 38.6541 107.063C38.6506 105.892 37.6562 105.084 36.3164 105.081C34.9697 105.084 33.9614 105.892 33.9683 107.063ZM35.0284 107.063C35.0215 106.396 35.5671 105.965 36.3164 105.968C37.0553 105.965 37.5975 106.396 37.6009 107.063C37.5975 107.736 37.0553 108.178 36.3164 108.178C35.5671 108.178 35.0215 107.736 35.0284 107.063ZM35.0595 110.447H39.7522V111.131H35.0733V113.51H41.1127V112.65H36.1437V111.921H40.8364V109.604H35.0595V110.447ZM44.883 105.433C43.5467 105.436 42.5867 106.645 42.5902 108.551C42.5867 110.471 43.5467 111.68 44.883 111.676C46.2159 111.68 47.1724 110.471 47.1793 108.551C47.1724 106.645 46.2159 105.436 44.883 105.433ZM43.6364 108.551C43.633 107.204 44.144 106.414 44.883 106.414C45.6358 106.414 46.133 107.204 46.133 108.551C46.133 109.908 45.6358 110.695 44.883 110.695C44.144 110.695 43.633 109.908 43.6364 108.551ZM48.3395 113.613H49.4272V109.097H50.7877V108.185H49.4272V104.794H48.3395V113.613ZM59.2265 111.666H55.7113V109.946H58.3011V105.378H57.2203V106.821H53.1319V105.378H52.0442V109.946H54.634V111.666H51.1568V112.553H59.2265V111.666ZM53.1319 109.073V107.691H57.2203V109.073H53.1319ZM67.1682 104.794H66.0735V113.613H67.1682V104.794ZM59.8581 111.186L60.4278 112.056C63.5148 110.588 64.5335 108.358 64.5369 105.73H60.307V106.59H63.432C63.2386 108.599 62.1682 110.088 59.8581 111.186Z" fill="white"/>
<path d="M312.348 40.4459C312.047 36.2675 308.579 33.0037 304.456 33.0037H292.246C288.105 33.0037 284.654 36.2675 284.354 40.4459L281.027 98.0292H278.868L275.329 40.4459C275.028 36.2675 271.56 33.0037 267.419 33.0037H255.209C251.068 33.0037 247.6 36.2675 247.317 40.4459L242.415 107.839H252.13L256.855 42.8131H265.791L269.861 100.396C270.144 104.306 273.205 107.426 276.975 107.803V107.839H277.753H281.929H282.708V107.803C286.495 107.426 289.556 104.306 289.822 100.396L293.892 42.8131H302.81L307.535 107.839H317.25L312.348 40.4459Z" fill="white" fill-opacity="0.2"/>
<path d="M362.337 40.4623C362.629 36.2747 365.976 33.0037 369.993 33.0037L380 33V33.0037V42.8347H371.607L367.659 100.545C367.401 104.463 364.431 107.59 360.757 107.967V108.003H360.002H355.95H355.195V107.967C351.538 107.59 348.568 104.463 348.294 100.545L344.345 42.8347H335.676L331.092 108.003H321.667L326.422 40.4623C326.697 36.2747 330.062 33.0037 334.079 33.0037H345.925C349.925 33.0037 353.29 36.2747 353.581 40.4623L357.015 98.1721H359.109L362.337 40.4623Z" fill="white" fill-opacity="0.2"/>
<path d="M216.207 33.0037C212.084 33.0037 208.63 36.2854 208.348 40.4638L205.353 98.0292H203.15L200.119 40.4459C199.82 36.2675 196.366 33.0037 192.26 33.0037H164.525V42.8131H190.622L194.674 100.396C194.974 104.575 198.428 107.839 202.533 107.839H205.969C210.093 107.839 213.546 104.557 213.828 100.378L217.846 42.8131H243.942V33.0037L216.207 33.0037Z" fill="white" fill-opacity="0.2"/>
</svg>
