<svg width="1238" height="458" viewBox="0 0 1238 458" fill="none" xmlns="http://www.w3.org/2000/svg">
<path d="M981.1 0H442.8C421.5 0 404.2 17.3 404.2 38.6V136.7C404.2 158 386.9 175.3 365.6 175.3H333.7C312.4 175.3 295.1 158 295.1 136.7V38.6C295.1 17.3 277.8 0 256.5 0C114.9 0 0 102.4 0 228.6C0 354.9 114.8 457.2 256.5 457.2H981.1C1122.7 457.2 1237.6 354.8 1237.6 228.6C1237.6 102.4 1122.8 0 981.1 0Z" fill="#5FBA93"/>
<path d="M239.9 162V203.4H204.4V282.5C204.4 298.5 204.7 307.9 205.4 310.5C206.1 313.2 207.6 315.3 210 317.1C212.4 318.8 215.3 319.7 218.8 319.7C223.6 319.7 230.6 318 239.7 314.7L244.1 355C232 360.2 218.3 362.8 203.1 362.8C193.7 362.8 185.3 361.2 177.8 358.1C170.3 355 164.8 350.9 161.3 345.9C157.8 340.9 155.4 334.2 154 325.7C152.9 319.7 152.3 307.5 152.3 289.1V203.5H128.5V162H152.3V123L204.4 92.7V162H239.9Z" fill="white"/>
<path d="M463.4 157.7H511.3V184.5C528.4 163.7 548.8 153.3 572.5 153.3C585.1 153.3 596 155.9 605.2 161.1C614.4 166.3 622 174.1 627.9 184.6C636.5 174.1 645.8 166.3 655.8 161.1C665.8 155.9 676.4 153.3 687.8 153.3C702.2 153.3 714.4 156.2 724.4 162.1C734.4 168 741.8 176.6 746.8 187.9C750.4 196.3 752.2 209.8 752.2 228.6V354H700.2V241.8C700.2 222.3 698.4 209.8 694.8 204.1C690 196.7 682.6 193 672.6 193C665.3 193 658.5 195.2 652.1 199.7C645.7 204.1 641.1 210.6 638.2 219.2C635.4 227.8 633.9 241.3 633.9 259.8V354H582V246.4C582 227.3 581.1 215 579.2 209.4C577.4 203.9 574.5 199.7 570.6 197C566.7 194.3 561.4 192.9 554.8 192.9C546.8 192.9 539.6 195.1 533.2 199.4C526.8 203.7 522.2 209.9 519.4 218.1C516.6 226.2 515.2 239.7 515.2 258.6V354H463.3V157.7H463.4Z" fill="white"/>
<path d="M800.1 157.7H848V184.5C865.1 163.7 885.5 153.3 909.2 153.3C921.8 153.3 932.7 155.9 941.9 161.1C951.1 166.3 958.7 174.1 964.6 184.6C973.2 174.1 982.5 166.3 992.5 161.1C1002.5 155.9 1013.1 153.3 1024.5 153.3C1038.9 153.3 1051.1 156.2 1061.1 162.1C1071.1 168 1078.5 176.6 1083.5 187.9C1087.1 196.3 1088.9 209.8 1088.9 228.6V354H1037V241.8C1037 222.3 1035.2 209.8 1031.6 204.1C1026.8 196.7 1019.4 193 1009.4 193C1002.1 193 995.3 195.2 988.9 199.7C982.5 204.1 977.9 210.6 975 219.2C972.2 227.8 970.7 241.3 970.7 259.8V354H918.8V246.4C918.8 227.3 917.9 215 916 209.4C914.2 203.9 911.3 199.7 907.4 197C903.5 194.3 898.2 192.9 891.6 192.9C883.6 192.9 876.4 195.1 870 199.4C863.6 203.7 859 209.9 856.2 218.1C853.4 226.2 852 239.7 852 258.6V354H800.1V157.7V157.7Z" fill="white"/>
</svg>
