<svg width="1316" height="418" viewBox="0 0 1316 418" fill="none" xmlns="http://www.w3.org/2000/svg">
<path d="M235.2 399H215.7C201.9 399 190.4 388.2 189.4 374.5L165.7 44.1C165.4 39.7 161.7 36.3 157.3 36.3H18.3V18.3H157.3C171.1 18.3 182.6 29.1 183.6 42.8L207.3 373.1C207.6 377.5 211.3 380.9 215.7 380.9H235.2C239.6 380.9 243.2 377.5 243.6 373.1L267 42.9001C268 29.2001 279.5 18.4 293.3 18.4H432.3V36.4001H293.3C288.9 36.4001 285.3 39.8001 284.9 44.2001L261.5 374.5C260.6 388.2 249 399 235.2 399Z" fill="#4378FF"/>
<path d="M235.2 404.7H215.7C198.9 404.7 184.8 391.6 183.6 374.9L160 44.5C159.9 43.2 158.7 42.1 157.4 42.1H12.6V12.6H157.4C174.2 12.6 188.3 25.7 189.5 42.4L213.2 372.7C213.3 374 214.5 375.1 215.8 375.1H235.3C236.6 375.1 237.8 374 237.9 372.7L261.3 42.4C262.5 25.7 276.6 12.5 293.4 12.5H438.2V42H293.3C292 42 290.8 43.1 290.7 44.4L267.3 374.7C266.1 391.6 252 404.7 235.2 404.7ZM24.1 30.6H157.4C164.8 30.6 171 36.4 171.5 43.7L195.2 374C196 384.7 205 393.1 215.8 393.1H235.3C246.1 393.1 255.1 384.7 255.9 373.9L279.3 43.6C279.8 36.2 286 30.5 293.4 30.5H426.7V24H293.3C282.5 24 273.5 32.4 272.7 43.2L249.3 373.5C248.8 380.9 242.6 386.6 235.2 386.6H215.7C208.3 386.6 202.1 380.8 201.6 373.5L178 43.3C177.2 32.6 168.2 24.2 157.4 24.2H24.1V30.6Z" fill="#4378FF"/>
<path d="M235.2 411.6H215.7C195.4 411.6 178.3 395.7 176.8 375.4L153.5 49H5.79999V5.80005H157.4C177.7 5.80005 194.8 21.7001 196.3 42L219.7 368.4H231.3L254.4 42C255.8 21.7001 272.9 5.80005 293.3 5.80005H445V49H297.3L274.1 375.4C272.7 395.7 255.6 411.6 235.2 411.6Z" fill="#4378FF"/>
<path d="M235.2 417.3H215.7C192.3 417.3 172.8 399.1 171.1 375.8L148.1 54.7H0V0H157.4C180.8 0 200.3 18.2 202 41.5L219.2 362.6H231.7L248.7 41.6C250.4 18.3 270 0 293.3 0H450.7V54.7H302.6L279.8 375.7C278.2 399.1 258.6 417.3 235.2 417.3ZM11.5 43.2H158.8L182.6 375C183.8 392.3 198.4 405.8 215.7 405.8H235.2C252.5 405.8 267.1 392.2 268.3 374.9L291.8 43.2H439.1V11.5H293.3C276 11.5 261.4 25.1 260.2 42.4L236.7 374.1H214.3L190.5 42.4C189.3 25.1 174.7 11.6 157.4 11.6H11.5V43.2Z" fill="#4378FF"/>
<path d="M838.9 41.5C837.2 18.2 817.6 0 794.3 0H725.3C701.9 0 682.4 18.2 680.7 41.5L661.9 362.6H649.7L629.7 41.5C628 18.2 608.4 0 585 0H516C492.6 0 473 18.2 471.4 41.5L443.7 417.3H498.6L525.3 54.7H575.8L598.8 375.8C600.4 397.6 617.7 415 639 417.1V417.3H643.4H667H671.4V417.1C692.8 415 710.1 397.6 711.6 375.8L734.6 54.7H785L811.7 417.3H866.6L838.9 41.5Z" fill="#4378FF"/>
<path d="M1288 41.5C1286.3 18.2 1266.7 0 1243.4 0H1174.4C1151 0 1131.5 18.2 1129.8 41.5L1111 362.6H1098.8L1078.8 41.5C1077.1 18.2 1057.5 0 1034.2 0H965.2C941.8 0 922.2 18.2 920.6 41.5L892.9 417.3H947.8L974.5 54.7H1025L1048 375.8C1049.6 397.6 1066.9 415 1088.2 417.1V417.3H1092.6H1116.2H1120.6V417.1C1142 415 1159.3 397.6 1160.8 375.8L1183.8 54.7H1234.3L1261 417.3H1315.9L1288 41.5Z" fill="#4378FF"/>
</svg>
