<svg width="55" height="55" viewBox="0 0 55 55" fill="none" xmlns="http://www.w3.org/2000/svg">
<circle cx="27.5" cy="27.5" r="27.5" fill="#FB4F4F"/>
<path fill-rule="evenodd" clip-rule="evenodd" d="M42.4255 32.8955C42.4519 32.9404 42.4736 32.9885 42.4937 33.0365C42.6781 33.4905 42.7835 33.9693 42.8098 34.459C42.8703 35.6289 42.472 36.7507 41.6864 37.6216C40.9024 38.4924 39.8254 39.0053 38.6555 39.0642L21.9872 39.0657C21.3457 39.0657 20.8251 38.5451 20.8251 37.9036C20.8251 37.2621 21.3457 36.7414 21.9872 36.7414H38.5967C39.0863 36.7135 39.5915 36.4749 39.9618 36.0643C40.3306 35.6552 40.5165 35.1299 40.4886 34.5798C40.4778 34.3722 40.4359 34.1677 40.3631 33.9724L29.1306 14.315C28.5743 13.3094 27.3176 12.9468 26.3228 13.4969C25.9835 13.6844 25.7061 13.9618 25.5186 14.3011L14.2767 33.974C14.0954 34.4667 14.1078 35.0013 14.3124 35.4863C14.5262 35.993 14.9244 36.3866 15.4342 36.5927C15.6496 36.681 15.8728 36.7306 16.1036 36.743C16.7436 36.774 17.2379 37.321 17.2054 37.9625C17.1744 38.5823 16.6599 39.0657 16.0448 39.0657C16.0246 39.0657 16.006 39.0657 15.9859 39.0642C15.4931 39.0394 15.0128 38.9325 14.5572 38.7465C13.4756 38.3065 12.628 37.4697 12.1725 36.3912C11.7154 35.3128 11.7076 34.1196 12.1492 33.0349C12.1678 32.9869 12.1895 32.9404 12.2159 32.8955L23.4918 13.1622C23.8823 12.4556 24.4758 11.8637 25.1963 11.4624C27.3145 10.2909 29.9874 11.0595 31.1573 13.1761L42.4255 32.8955ZM27.3207 27.3363C27.9622 27.3363 28.4829 26.8157 28.4829 26.1742V21.7936C28.4829 21.1521 27.9622 20.6315 27.3207 20.6315C26.6792 20.6315 26.1586 21.1521 26.1586 21.7936V26.1742C26.1586 26.8157 26.6792 27.3363 27.3207 27.3363ZM27.3207 32.6371C27.9622 32.6371 28.4829 32.1165 28.4829 31.475V31.4595C28.4829 30.818 27.9622 30.3051 27.3207 30.3051C26.6792 30.3051 26.1586 30.8335 26.1586 31.475C26.1586 32.1165 26.6792 32.6371 27.3207 32.6371Z" fill="white"/>
</svg>
