<svg width="55" height="55" viewBox="0 0 55 55" fill="none" xmlns="http://www.w3.org/2000/svg">
<path fill-rule="evenodd" clip-rule="evenodd" d="M27.5 55C42.6878 55 55 42.6878 55 27.5C55 25.7046 54.8279 23.9494 54.4994 22.25H32.9177C32.855 22.25 32.8009 22.2584 32.7578 22.2703L30.9135 41.1872L30.9134 41.1882C30.8422 41.9127 30.4029 42.4471 29.932 42.7655C29.4573 43.0865 28.8753 43.25 28.2863 43.25H26.731C26.1419 43.25 25.56 43.0865 25.0853 42.7655C24.6144 42.4471 24.1751 41.9128 24.1038 41.1883L24.1038 41.1882L22.2424 22.2703C22.1992 22.2584 22.145 22.25 22.0823 22.25H0.500564C0.172051 23.9494 0 25.7046 0 27.5C0 42.6878 12.3122 55 27.5 55ZM1.10716 19.75C4.45344 8.33556 15.0033 0 27.5 0C39.9967 0 50.5466 8.33556 53.8928 19.75H32.9177C32.3287 19.75 31.7467 19.9135 31.272 20.2345C30.8011 20.5529 30.3618 21.0873 30.2906 21.8118L30.2905 21.8128L28.4462 40.7297C28.4031 40.7416 28.349 40.75 28.2863 40.75H26.731C26.6682 40.75 26.614 40.7416 26.5708 40.7297L24.7094 21.8118L24.7094 21.8117C24.6381 21.0872 24.1988 20.5529 23.728 20.2345C23.2533 19.9135 22.6713 19.75 22.0823 19.75H1.10716Z" fill="#FB4F4F"/>
</svg>
