<svg width="1659" height="1659" viewBox="0 0 1659 1659" fill="none" xmlns="http://www.w3.org/2000/svg">
<rect width="1659" height="1659" rx="261" fill="#454BE3"/>
<path d="M403.2 1037H383.7C369.9 1037 358.4 1026.2 357.4 1012.5L333.7 682.1C333.4 677.7 329.7 674.3 325.3 674.3H186.3V656.3H325.3C339.1 656.3 350.6 667.1 351.6 680.8L375.3 1011.1C375.6 1015.5 379.3 1018.9 383.7 1018.9H403.2C407.6 1018.9 411.2 1015.5 411.6 1011.1L435 680.9C436 667.2 447.5 656.4 461.3 656.4H600.3V674.4H461.3C456.9 674.4 453.3 677.8 452.9 682.2L429.5 1012.5C428.6 1026.2 417 1037 403.2 1037Z" fill="white"/>
<path d="M403.2 1042.7H383.7C366.9 1042.7 352.8 1029.6 351.6 1012.9L328 682.5C327.9 681.2 326.7 680.1 325.4 680.1H180.6V650.6H325.4C342.2 650.6 356.3 663.7 357.5 680.4L381.2 1010.7C381.3 1012 382.5 1013.1 383.8 1013.1H403.3C404.6 1013.1 405.8 1012 405.9 1010.7L429.3 680.4C430.5 663.7 444.6 650.5 461.4 650.5H606.2V680H461.3C460 680 458.8 681.1 458.7 682.4L435.3 1012.7C434.1 1029.6 420 1042.7 403.2 1042.7ZM192.1 668.6H325.4C332.8 668.6 339 674.4 339.5 681.7L363.2 1012C364 1022.7 373 1031.1 383.8 1031.1H403.3C414.1 1031.1 423.1 1022.7 423.9 1011.9L447.3 681.6C447.8 674.2 454 668.5 461.4 668.5H594.7V662H461.3C450.5 662 441.5 670.4 440.7 681.2L417.3 1011.5C416.8 1018.9 410.6 1024.6 403.2 1024.6H383.7C376.3 1024.6 370.1 1018.8 369.6 1011.5L346 681.3C345.2 670.6 336.2 662.2 325.4 662.2H192.1V668.6Z" fill="white"/>
<path d="M403.2 1049.6H383.7C363.4 1049.6 346.3 1033.7 344.8 1013.4L321.5 687H173.8V643.8H325.4C345.7 643.8 362.8 659.7 364.3 680L387.7 1006.4H399.3L422.4 680C423.8 659.7 440.9 643.8 461.3 643.8H613V687H465.3L442.1 1013.4C440.7 1033.7 423.6 1049.6 403.2 1049.6Z" fill="white"/>
<path d="M403.2 1055.3H383.7C360.3 1055.3 340.8 1037.1 339.1 1013.8L316.1 692.7H168V638H325.4C348.8 638 368.3 656.2 370 679.5L387.2 1000.6H399.7L416.7 679.6C418.4 656.3 438 638 461.3 638H618.7V692.7H470.6L447.8 1013.7C446.2 1037.1 426.6 1055.3 403.2 1055.3ZM179.5 681.2H326.8L350.6 1013C351.8 1030.3 366.4 1043.8 383.7 1043.8H403.2C420.5 1043.8 435.1 1030.2 436.3 1012.9L459.8 681.2H607.1V649.5H461.3C444 649.5 429.4 663.1 428.2 680.4L404.7 1012.1H382.3L358.5 680.4C357.3 663.1 342.7 649.6 325.4 649.6H179.5V681.2Z" fill="white"/>
<path d="M1006.9 679.5C1005.2 656.2 985.6 638 962.3 638H893.3C869.9 638 850.4 656.2 848.7 679.5L829.9 1000.6H817.7L797.7 679.5C796 656.2 776.4 638 753 638H684C660.6 638 641 656.2 639.4 679.5L611.7 1055.3H666.6L693.3 692.7H743.8L766.8 1013.8C768.4 1035.6 785.7 1053 807 1055.1V1055.3H811.4H835H839.4V1055.1C860.8 1053 878.1 1035.6 879.6 1013.8L902.6 692.7H953L979.7 1055.3H1034.6L1006.9 679.5Z" fill="white"/>
<path d="M1456 679.5C1454.3 656.2 1434.7 638 1411.4 638H1342.4C1319 638 1299.5 656.2 1297.8 679.5L1279 1000.6H1266.8L1246.8 679.5C1245.1 656.2 1225.5 638 1202.2 638H1133.2C1109.8 638 1090.2 656.2 1088.6 679.5L1060.9 1055.3H1115.8L1142.5 692.7H1193L1216 1013.8C1217.6 1035.6 1234.9 1053 1256.2 1055.1V1055.3H1260.6H1284.2H1288.6V1055.1C1310 1053 1327.3 1035.6 1328.8 1013.8L1351.8 692.7H1402.3L1429 1055.3H1483.9L1456 679.5Z" fill="white"/>
</svg>
